<svg width="1920" height="832" viewBox="0 0 1920 832" fill="none" xmlns="http://www.w3.org/2000/svg">
<rect width="1920" height="832" fill="#F1F1F1"/>
<path d="M744.873 293.001C744.873 271.254 753.939 250.397 770.077 235.019C786.214 219.642 808.102 211.002 830.924 211.002H1089.08C1111.9 211.002 1133.79 219.642 1149.92 235.019C1166.06 250.397 1175.13 271.254 1175.13 293.001V538.998C1175.13 560.746 1166.06 581.603 1149.92 596.981C1133.79 612.358 1111.9 620.997 1089.08 620.997H830.924C808.102 620.997 786.214 612.358 770.077 596.981C753.939 581.603 744.873 560.746 744.873 538.998V293.001Z" stroke="#D9D9D9" stroke-width="11" stroke-linecap="round" stroke-linejoin="round"/>
<path d="M884.704 395.499C914.407 395.499 938.486 372.554 938.486 344.25C938.486 315.946 914.407 293 884.704 293C855.001 293 830.922 315.946 830.922 344.25C830.922 372.554 855.001 395.499 884.704 395.499Z" stroke="#D9D9D9" stroke-width="11" stroke-linecap="round" stroke-linejoin="round"/>
<path d="M1014.34 428.73L830.922 620.997H1091.94C1114 620.997 1135.16 612.645 1150.76 597.779C1166.36 582.912 1175.13 562.749 1175.13 541.725V538.998C1175.13 529.445 1171.36 525.776 1164.58 518.703L1077.89 428.607C1073.85 424.407 1068.93 421.056 1063.46 418.767C1057.98 416.478 1052.06 415.301 1046.09 415.313C1040.11 415.325 1034.19 416.524 1028.73 418.834C1023.26 421.144 1018.36 424.514 1014.34 428.73V428.73Z" stroke="#D9D9D9" stroke-width="11" stroke-linecap="round" stroke-linejoin="round"/>
</svg>
