<svg width="489" height="141" viewBox="0 0 489 141" fill="none" xmlns="http://www.w3.org/2000/svg">
<path d="M115.289 26.1699C121.441 31.7949 126.305 38.5918 129.879 46.5605C133.512 54.5293 135.328 63.6113 135.328 73.8066C135.328 82.8887 133.805 91.5312 130.758 99.7344C127.711 107.938 123.316 114.998 117.574 120.916C111.539 127.068 104.449 131.873 96.3047 135.33C88.1602 138.729 78.4629 140.428 67.2129 140.428C58.1309 140.428 49.5469 138.934 41.4609 135.945C33.375 132.957 26.2559 128.621 20.1035 122.938C14.0098 117.371 9.17578 110.604 5.60156 102.635C2.02734 94.666 0.240234 85.7891 0.240234 76.0039C0.240234 65.8086 1.96875 56.5801 5.42578 48.3184C8.94141 39.998 13.7461 32.8789 19.8398 26.9609C25.875 21.1602 33.0234 16.707 41.2852 13.6016C49.6055 10.4375 58.4531 8.85547 67.8281 8.85547C77.1445 8.85547 85.875 10.3789 94.0195 13.4258C102.223 16.4727 109.312 20.7207 115.289 26.1699ZM92.7012 115.379C95.3379 110.047 97.2422 104.012 98.4141 97.2734C99.5859 90.5352 100.172 82.918 100.172 74.4219C100.172 67.2148 99.6445 60.2129 98.5898 53.416C97.5938 46.5605 95.8652 40.4668 93.4043 35.1348C90.8848 29.8027 87.5449 25.5254 83.3848 22.3027C79.2246 19.0801 74.0391 17.4688 67.8281 17.4688C57.2227 17.4688 49.166 22.5078 43.6582 32.5859C38.1504 42.6055 35.3965 56.7852 35.3965 75.125C35.3965 82.918 35.9824 90.2715 37.1543 97.1855C38.3848 104.1 40.2891 110.135 42.8672 115.291C45.5039 120.506 48.8438 124.578 52.8867 127.508C56.9297 130.379 61.9102 131.814 67.8281 131.814C73.6289 131.814 78.6094 130.35 82.7695 127.42C86.9297 124.49 90.2402 120.477 92.7012 115.379ZM232.493 65.8965C232.493 70.3496 231.116 74.2754 228.362 77.6738C225.608 81.0137 221.975 82.6836 217.464 82.6836C213.186 82.6836 209.554 81.5996 206.565 79.4316C203.636 77.2637 202.171 74.0703 202.171 69.8516C202.171 67.8008 202.317 66.2188 202.61 65.1055C202.903 63.9336 203.167 62.8496 203.401 61.8535C200.706 61.9707 197.864 62.9082 194.876 64.666C191.887 66.4238 189.251 68.7676 186.966 71.6973V119.949C186.966 122 187.288 123.699 187.932 125.047C188.577 126.395 189.661 127.449 191.184 128.211C192.473 128.855 194.554 129.412 197.425 129.881C200.354 130.291 202.464 130.525 203.753 130.584V137H144.954V130.584C146.419 130.467 147.884 130.32 149.348 130.145C150.872 129.91 152.161 129.617 153.216 129.266C155.091 128.621 156.38 127.625 157.083 126.277C157.786 124.93 158.137 123.172 158.137 121.004V69.8516C158.137 67.7422 157.639 65.8672 156.643 64.2266C155.647 62.5273 154.446 61.1797 153.04 60.1836C151.985 59.4805 150.637 58.8945 148.997 58.4258C147.415 57.957 145.657 57.6348 143.723 57.459V51.043L185.647 48.7578L186.966 50.0762V62.8203H187.317C191.36 58.1328 195.637 54.4707 200.149 51.834C204.72 49.1387 209.466 47.791 214.387 47.791C219.837 47.791 224.202 49.4902 227.483 52.8887C230.823 56.2285 232.493 60.5645 232.493 65.8965ZM277.539 139.988C271.855 139.988 266.289 139.139 260.839 137.439C255.449 135.799 251.259 134.041 248.271 132.166L245.634 138.143H238.779L237.636 105.359H244.052C244.931 107.996 246.396 110.984 248.447 114.324C250.498 117.605 252.841 120.564 255.478 123.201C258.232 125.838 261.367 128.064 264.882 129.881C268.457 131.697 272.265 132.605 276.308 132.605C281.64 132.605 285.595 131.58 288.173 129.529C290.81 127.42 292.129 124.197 292.129 119.861C292.129 117.518 291.543 115.584 290.371 114.061C289.199 112.537 287.587 111.219 285.537 110.105C283.252 108.934 280.732 107.938 277.978 107.117C275.283 106.297 271.943 105.301 267.959 104.129C263.974 102.957 260.546 101.785 257.675 100.613C254.863 99.3828 251.933 97.4785 248.886 94.9004C246.25 92.6152 244.14 89.8613 242.558 86.6387C240.976 83.416 240.185 79.5781 240.185 75.125C240.185 66.8633 243.642 60.1836 250.556 55.0859C257.529 49.9883 266.64 47.4395 277.89 47.4395C283.222 47.4395 288.115 47.9961 292.568 49.1094C297.08 50.1641 300.859 51.3359 303.906 52.625L305.752 47.4395H312.431L313.837 77.4102H307.597C305.546 71.3164 302.031 66.0723 297.05 61.6777C292.07 57.2246 286.709 54.998 280.966 54.998C276.455 54.998 272.91 55.9355 270.332 57.8105C267.754 59.6855 266.464 62.293 266.464 65.6328C266.464 70.0859 268.339 73.3086 272.089 75.3008C275.898 77.293 281.201 79.168 287.998 80.9258C298.486 83.6211 306.162 87.3125 311.025 92C315.888 96.6289 318.32 102.547 318.32 109.754C318.32 119.363 314.541 126.805 306.982 132.078C299.482 137.352 289.668 139.988 277.539 139.988ZM427.789 135.154C425.211 136.268 422.164 137.293 418.649 138.23C415.133 139.168 411.413 139.637 407.487 139.637C400.28 139.637 394.977 138.582 391.579 136.473C388.18 134.305 385.866 131.229 384.635 127.244H384.108C382.116 129.236 380.182 130.936 378.307 132.342C376.491 133.748 374.528 134.949 372.418 135.945C369.664 137.234 366.998 138.172 364.42 138.758C361.901 139.402 358.356 139.725 353.786 139.725C346.989 139.725 341.188 137.732 336.383 133.748C331.579 129.705 329.176 124.373 329.176 117.752C329.176 113.943 329.704 110.721 330.758 108.084C331.813 105.389 333.307 103.016 335.241 100.965C336.998 99.0898 339.02 97.5371 341.305 96.3066C343.649 95.0762 346.198 93.9336 348.952 92.8789C354.225 90.9453 360.553 88.9531 367.936 86.9023C375.319 84.793 380.709 82.918 384.108 81.2773V72.8398C384.108 71.375 383.991 69.4414 383.756 67.0391C383.522 64.6367 383.024 62.6152 382.262 60.9746C381.442 59.0996 380.153 57.5176 378.395 56.2285C376.637 54.9395 374.323 54.2949 371.452 54.2949C368.873 54.2949 366.705 54.6758 364.948 55.4375C363.248 56.1406 361.871 56.873 360.817 57.6348C360.993 58.8066 361.491 60.5938 362.311 62.9961C363.131 65.3984 363.541 67.7129 363.541 69.9395C363.541 70.9355 363.278 72.1953 362.75 73.7188C362.223 75.1836 361.461 76.3555 360.465 77.2344C359.118 78.4062 357.594 79.3145 355.895 79.959C354.254 80.6035 351.705 80.9258 348.248 80.9258C343.327 80.9258 339.606 79.7539 337.086 77.4102C334.567 75.0078 333.307 71.9023 333.307 68.0938C333.307 64.8125 334.596 61.8828 337.174 59.3047C339.811 56.668 343.004 54.5 346.754 52.8008C350.446 51.043 354.694 49.6953 359.498 48.7578C364.303 47.7617 368.756 47.2637 372.858 47.2637C378.541 47.2637 383.756 47.6152 388.502 48.3184C393.248 48.9629 397.526 50.3398 401.334 52.4492C404.967 54.5 407.838 57.4883 409.948 61.4141C412.116 65.2812 413.2 70.3496 413.2 76.6191C413.2 83.2402 413.053 91.0918 412.76 100.174C412.526 109.256 412.409 115.232 412.409 118.104C412.409 120.74 412.789 122.82 413.551 124.344C414.371 125.867 415.602 127.01 417.243 127.771C418.239 128.24 419.791 128.533 421.901 128.65C424.069 128.709 426.032 128.738 427.789 128.738V135.154ZM384.108 89.3633C380.827 90.4766 377.575 91.7656 374.352 93.2305C371.129 94.6367 368.493 96.1309 366.442 97.7129C364.274 99.3535 362.575 101.463 361.344 104.041C360.114 106.561 359.498 109.549 359.498 113.006C359.498 117.576 360.524 120.887 362.575 122.938C364.684 124.988 367.262 126.014 370.309 126.014C373.532 126.014 376.168 125.369 378.219 124.08C380.329 122.732 382.174 121.092 383.756 119.158L384.108 89.3633Z" fill="#191A1E"/>
<path d="M488.304 137H432.757V130.584C434.28 130.467 435.775 130.32 437.239 130.145C438.704 129.969 439.964 129.676 441.019 129.266C442.894 128.562 444.212 127.566 444.974 126.277C445.736 124.93 446.116 123.172 446.116 121.004V69.8516C446.116 67.8008 445.648 66.0137 444.71 64.4902C443.773 62.9082 442.601 61.6484 441.195 60.7109C440.14 60.0078 438.529 59.334 436.361 58.6895C434.251 58.0449 432.318 57.6348 430.56 57.459V51.043L473.626 48.7578L474.945 50.0762V119.861C474.945 121.912 475.384 123.67 476.263 125.135C477.142 126.541 478.402 127.596 480.042 128.299C481.214 128.826 482.503 129.295 483.909 129.705C485.316 130.115 486.78 130.408 488.304 130.584V137ZM475.472 17.1172C475.472 21.5703 473.743 25.3789 470.286 28.543C466.888 31.6484 462.845 33.2012 458.157 33.2012C453.411 33.2012 449.31 31.6484 445.853 28.543C442.454 25.3789 440.755 21.5703 440.755 17.1172C440.755 12.6641 442.454 8.85547 445.853 5.69141C449.31 2.52734 453.411 0.945312 458.157 0.945312C462.904 0.945312 466.976 2.52734 470.374 5.69141C473.773 8.85547 475.472 12.6641 475.472 17.1172Z" fill="#9B3565"/>
</svg>
