<svg width="133" height="135" viewBox="0 0 133 135" fill="none" xmlns="http://www.w3.org/2000/svg">
<path d="M5.34309 92.1904C8.2376 92.1904 10.5853 94.5353 10.5853 97.4264V113.147C10.5853 113.985 10.6704 114.76 10.8374 115.469C11.0044 116.179 11.2271 116.843 11.5087 117.458C12.0391 118.628 12.7529 119.659 13.6468 120.552C14.5407 121.444 15.5754 122.157 16.7509 122.684C17.3664 122.962 18.0311 123.194 18.7417 123.374C19.4555 123.554 20.2315 123.645 21.0697 123.645C21.908 123.645 22.72 123.554 23.4174 123.374C24.1149 123.194 24.773 122.962 25.3886 122.684C26.5641 122.154 27.5955 121.444 28.4926 120.552C29.3865 119.659 30.1003 118.628 30.6308 117.458C30.9091 116.843 31.135 116.182 31.302 115.469C31.469 114.76 31.5541 113.985 31.5541 113.147V97.4264C31.5541 94.5353 33.9018 92.1904 36.7964 92.1904C39.6909 92.1904 42.0386 94.5353 42.0386 97.4264V113.092C42.0386 113.147 42.032 113.16 42.0189 113.134C42.0058 113.108 41.9829 113.121 41.9567 113.177C41.9567 113.232 41.9633 113.301 41.9796 113.386C41.9927 113.471 41.9862 113.54 41.9567 113.595C41.9567 114.21 41.9142 114.809 41.8323 115.397C41.5802 117.687 41.0366 119.74 40.1984 121.556C38.5776 125.16 36.243 128.034 33.1946 130.183C32.0486 130.994 30.8043 131.697 29.4618 132.299C28.1194 132.901 26.6394 133.365 25.0153 133.702C24.6224 133.787 24.2131 133.849 23.7776 133.892C23.3421 133.934 22.8903 133.983 22.4155 134.039C20.9617 134.15 19.5635 134.101 18.2211 133.892C16.8786 133.682 15.6638 133.394 14.5734 133.031C12.5859 132.361 10.8276 131.481 9.28866 130.392C7.72353 129.329 6.33194 128.096 5.11716 126.687C3.90238 125.277 2.88733 123.649 2.0753 121.807C1.65618 120.915 1.29273 119.963 0.984944 118.959C0.677156 117.955 0.454502 116.866 0.313705 115.692C0.228572 114.936 0.18928 114.155 0.18928 113.347V113.18C0.159811 113.124 0.140165 113.111 0.127068 113.137C0.113971 113.167 0.107422 113.151 0.107422 113.095V97.4296C0.107422 94.5386 2.45512 92.1937 5.34963 92.1937" fill="#171E2C"/>
<path d="M129.334 134.156H124.478C122.687 134.156 121.236 132.707 121.236 130.918V95.4242C121.236 93.6353 122.687 92.1865 124.478 92.1865H129.334C131.125 92.1865 132.575 93.6353 132.575 95.4242V130.918C132.575 132.707 131.125 134.156 129.334 134.156Z" fill="#171E2C"/>
<path d="M81.6716 92.1866C79.4254 92.1866 77.4837 93.4915 76.5669 95.385C75.9153 94.9664 75.2441 94.5838 74.5499 94.2437C73.6691 93.812 72.7261 93.4391 71.7176 93.1317C71.2134 92.9911 70.696 92.8603 70.1656 92.7327C69.6352 92.6084 69.0753 92.4874 68.4859 92.3762C67.6738 92.265 66.816 92.1964 65.9057 92.1669C64.9954 92.1408 64.1212 92.1669 63.283 92.252C61.6884 92.4188 60.2411 92.7196 58.9412 93.1546C57.6413 93.5896 56.4036 94.1259 55.2281 94.7669C52.6839 96.1928 50.513 98.0504 48.7253 100.34C47.8576 101.488 47.0946 102.737 46.4398 104.091C45.7816 105.445 45.2708 106.933 44.9074 108.555C44.7109 109.422 44.5734 110.308 44.4883 111.217C44.4031 112.126 44.39 113.081 44.4457 114.089C44.5308 115.989 44.8222 117.709 45.3265 119.243C45.8013 120.75 46.4037 122.15 47.1307 123.435C47.8576 124.721 48.6991 125.895 49.6486 126.954C50.5982 128.043 51.6492 129.021 52.7952 129.888C53.9413 130.755 55.2019 131.494 56.5706 132.109C57.9425 132.75 59.4651 133.27 61.1448 133.659C62.8213 134.051 64.668 134.175 66.6817 134.035C68.5284 133.894 70.1983 133.58 71.6947 133.093C73.1911 132.606 74.5696 131.997 75.8269 131.271L75.9121 131.229L76.5342 130.892C77.4379 132.822 79.3992 134.159 81.6716 134.159C84.8019 134.159 87.3428 131.625 87.3428 128.495V97.8509C87.3428 94.7244 84.8052 92.1866 81.6716 92.1866ZM75.7025 115.259C75.4799 116.322 75.1295 117.287 74.6547 118.15C74.1799 119.017 73.62 119.773 72.975 120.414C72.3299 121.058 71.5965 121.63 70.7714 122.134C69.9462 122.637 69.0032 123.014 67.9391 123.265C67.294 123.406 66.5278 123.504 65.6307 123.56C64.7924 123.615 64 123.553 63.26 123.37C62.52 123.19 61.839 122.971 61.2267 122.719C60.0217 122.189 58.9739 121.49 58.08 120.623C57.435 119.982 56.862 119.246 56.361 118.422C55.8568 117.598 55.4638 116.669 55.1855 115.635C55.0447 114.994 54.9465 114.21 54.8908 113.287C54.8352 112.476 54.9039 111.688 55.1004 110.92C55.2968 110.151 55.5064 109.487 55.7291 108.928C56.0368 108.287 56.3512 107.711 56.6721 107.211C56.993 106.707 57.3793 106.22 57.8279 105.742C58.6956 104.876 59.7172 104.15 60.8894 103.564C61.4755 103.286 62.1271 103.048 62.8409 102.851C63.5547 102.655 64.3307 102.557 65.169 102.557C66.0072 102.531 66.8127 102.606 67.5822 102.789C68.3516 102.972 69.0163 103.188 69.5762 103.44C70.8074 103.97 71.8552 104.67 72.7229 105.536C73.6168 106.429 74.36 107.459 74.9461 108.617C75.5322 109.778 75.8564 111.194 75.9121 112.872C75.9383 113.654 75.8695 114.452 75.7025 115.259Z" fill="#171E2C"/>
<path d="M112.483 134.281C104.431 134.281 99.6703 131.066 97.0933 128.371C91.5695 122.589 91.5139 114.877 91.5564 113.402V97.3445C91.5564 94.2409 94.0777 91.7227 97.185 91.7227C100.292 91.7227 102.814 94.2409 102.814 97.3445V113.742C102.807 114.138 102.84 118.148 105.286 120.656C106.825 122.236 109.248 123.037 112.483 123.037C115.718 123.037 118.111 125.552 118.111 128.659C118.111 131.766 115.593 134.281 112.483 134.281Z" fill="#171E2C"/>
<g style="mix-blend-mode:multiply">
<path d="M15.2207 57.8957C15.2207 57.8957 54.8893 57.706 71.2708 70.3462C71.2708 70.3462 104.833 95.1883 130.913 58.0036L15.2207 57.8957Z" fill="#25A9ED"/>
</g>
<path d="M130.731 57.8962L106.36 32.3967C106.36 32.3967 94.0713 17.6144 80.8299 30.6569C80.8299 30.6569 71.1641 41.5866 56.459 43.9871C56.459 43.9871 36.1516 46.3058 33.8301 57.8962H130.731Z" fill="#DF1174"/>
<path d="M1.86914 57.8964C6.1487 37.6656 6.88215 5.67759 30.8568 0.889692C59.6252 -3.8982 70.8103 32.8155 93.1838 45.5833C93.1838 45.5833 106.284 53.4453 118.115 57.8964H1.86914Z" fill="#F9EC31"/>
<path fill-rule="evenodd" clip-rule="evenodd" d="M78.7038 33.2935C83.2288 38.28 88.0015 42.7917 93.4338 45.8917C93.4338 45.8917 106.534 53.7535 118.364 58.2046H34.0801C36.4016 46.6142 56.709 44.2955 56.709 44.2955C67.1027 42.5988 74.9788 36.6411 78.7038 33.2935Z" fill="#F5CB3B"/>
</svg>
