<svg width="1366" height="992" viewBox="0 0 1366 992" fill="none" xmlns="http://www.w3.org/2000/svg">
<g opacity="0.8">
<path d="M-35.4513 931.997C-41.8926 875.345 9.46975 827.475 61.2606 818.66C113.051 809.846 165.01 828.024 216.327 839.671C267.643 851.318 325.386 855.167 368.257 822.309C423.062 780.304 435.746 691.943 492.126 652.487C536.068 621.729 593.275 630.943 638.303 653.82C663.763 666.75 685.412 688.511 709.74 703.674C820.084 772.422 827.535 912.886 921.279 933.847C1022.79 956.524 1077.88 902.638 1097.03 865.248C1121.57 817.361 1162.48 693.126 1062.22 606.782C1021.49 571.708 981.27 534.318 951.313 488.13C906.453 418.982 906.759 313.276 964.119 256.124C1003.44 216.968 1063.83 202.655 1090.54 152.435C1108.49 118.694 1106.04 75.1884 1090.6 39.981C1075.17 4.79019 1048.28 -23.0525 1019.09 -45.6133" stroke="#C09999" stroke-miterlimit="10"/>
<path d="M-33.1255 934.814C-37.5625 876.529 13.5092 826.175 66.8453 816.161C118.911 806.381 171.727 824.409 223.044 837.256C273.764 849.953 330.068 855.718 372.801 825.859C427.392 787.636 442.738 703.758 499.042 664.818C543.902 633.959 600.191 639.708 646.29 659.702C672.775 671.199 696.245 691.694 721.72 707.073C829.754 772.256 838.643 908.171 930.352 928.832C1028.99 951.009 1083.78 900.006 1103.69 863.216C1128.92 816.595 1167.95 696.893 1073.21 611.532C1034.15 576.341 995.408 538.234 965.94 492.346C922.396 424.847 921.998 322.891 976.145 266.239C1013.61 227.049 1071.83 211.087 1098.42 161.516C1116.68 127.642 1115.56 84.7531 1102.06 49.2957C1088.46 13.5051 1063.63 -15.9039 1035.57 -40.1309" stroke="#C09999" stroke-miterlimit="10"/>
<path d="M-30.7851 937.645C-33.2331 877.744 17.5632 824.908 72.4446 813.661C124.771 802.93 178.444 820.775 229.775 834.855C279.899 848.601 334.78 856.283 377.375 829.406C431.737 794.982 449.684 715.436 506.003 677.163C551.705 646.104 607.213 648.437 654.338 665.599C681.878 675.63 707.123 694.908 733.76 710.488C839.377 772.271 849.796 903.454 939.47 923.832C1035.25 945.509 1089.72 897.389 1110.39 861.198C1136.29 815.86 1173.47 700.607 1084.25 616.312C1046.86 580.988 1009.62 542.182 980.612 496.577C938.399 430.711 937.297 332.487 988.216 276.385C1023.83 237.145 1079.88 219.55 1106.36 170.646C1124.92 136.621 1125.14 94.3324 1113.6 58.6417C1101.82 22.2346 1079.05 -8.74063 1052.12 -34.6172" stroke="#C7A8A8" stroke-miterlimit="10"/>
<path d="M-28.4593 940.479C-28.9183 878.945 21.5873 823.676 78.0293 811.163C130.631 799.499 185.161 817.128 236.492 832.44C286.003 847.203 339.462 856.851 381.92 832.957C436.067 802.315 456.645 727.218 512.919 689.511C559.508 658.303 614.236 657.136 662.324 671.499C690.951 680.047 717.925 698.126 745.756 713.922C848.863 772.44 860.92 898.756 948.559 918.851C1041.48 940.029 1095.62 894.791 1117.06 859.2C1143.6 815.112 1178.98 704.241 1095.26 621.096C1059.5 585.588 1023.88 546.049 995.254 500.811C954.526 436.461 952.552 342.052 1000.27 286.517C1034.04 247.21 1087.8 227.932 1114.27 179.745C1133.06 145.537 1134.71 103.865 1125.09 67.974C1115.15 30.9171 1094.43 -1.5744 1068.65 -29.1172" stroke="#CDB4B4" stroke-miterlimit="10"/>
<path d="M-26.1333 943.295C-24.6033 880.128 25.6269 822.443 83.6142 808.664C136.491 796.1 191.862 813.462 243.209 830.041C292.124 845.821 344.144 857.418 386.479 836.523C440.397 809.663 463.623 738.999 519.866 701.875C567.342 670.517 621.336 665.801 670.357 677.431C700.085 684.48 728.773 701.392 757.782 717.371C858.304 772.756 872.074 894.091 957.678 913.886C1047.73 934.547 1101.53 892.208 1123.76 857.218C1150.95 814.396 1184.53 707.807 1106.29 625.912C1072.17 590.204 1038.11 550.015 1009.91 505.077C970.56 442.326 967.822 351.617 1012.33 296.681C1044.26 257.275 1095.81 236.414 1122.18 188.876C1141.25 154.518 1144.31 113.396 1136.58 77.322C1128.5 39.5819 1109.81 5.60745 1085.16 -23.6016" stroke="#CDB4B4" stroke-miterlimit="10"/>
<path d="M-23.8078 946.126C-20.2735 881.343 29.666 821.226 89.1987 806.163C142.351 792.717 198.564 809.795 249.926 827.624C298.244 844.403 348.872 858.066 391.024 840.071C444.773 817.127 470.599 750.794 526.797 714.204C575.175 682.712 628.45 674.381 678.359 683.312C709.22 688.827 739.575 704.606 769.777 720.769C867.637 773.155 883.197 889.358 966.751 908.87C1053.95 929.031 1107.4 889.575 1130.42 855.184C1158.23 813.611 1190.06 711.205 1117.27 630.676C1084.79 594.735 1052.28 553.912 1024.54 509.291C986.549 448.157 983.045 361.08 1024.36 306.794C1054.44 267.254 1103.78 244.827 1130.08 197.972C1149.43 163.481 1153.9 122.875 1148.06 86.6348C1141.84 48.1782 1125.15 12.7375 1101.67 -18.1211" stroke="#CDB4B4" stroke-miterlimit="10"/>
<path d="M-21.4824 948.958C-15.9591 882.542 33.705 820.042 94.7829 803.663C148.211 789.35 205.28 806.112 256.658 825.224C304.379 842.986 353.569 858.649 395.598 843.636C449.118 824.491 477.607 762.591 533.743 726.567C583.009 694.942 635.595 682.945 686.392 689.226C718.384 693.192 750.392 707.872 781.803 724.201C876.954 773.688 894.35 884.675 975.869 903.887C1060.19 923.548 1113.29 886.975 1137.12 853.183C1165.54 812.861 1195.67 714.52 1128.3 635.457C1097.44 599.233 1066.49 557.844 1039.21 513.522C1002.58 454.005 998.299 370.51 1036.43 316.924C1064.67 277.234 1111.81 253.274 1138 207.069C1157.65 172.428 1163.56 132.322 1159.56 95.9652C1155.25 56.7921 1140.54 19.9018 1118.19 -12.623" stroke="#CDB4B4" stroke-miterlimit="10"/>
<path d="M-19.1567 951.792C-11.6444 883.76 37.7596 818.877 100.368 801.182C154.071 786.003 211.982 802.415 263.375 822.843C310.499 841.555 358.251 859.267 400.142 847.203C453.448 831.874 484.583 774.422 540.673 738.932C590.842 707.173 642.74 691.444 694.393 695.143C727.533 697.509 761.178 711.155 793.798 727.634C886.18 774.322 905.473 879.978 984.942 898.906C1066.4 918.068 1119.14 884.36 1143.76 851.185C1172.78 812.112 1201.27 717.737 1139.29 640.257C1110.05 603.7 1080.66 561.795 1053.82 517.773C1018.54 459.871 1013.48 379.909 1048.44 327.073C1074.83 287.183 1119.78 261.74 1145.88 216.185C1165.82 181.394 1173.19 141.788 1171.02 105.297C1168.63 65.3746 1155.89 27.0513 1134.67 -7.12305" stroke="#D2BEBE" stroke-miterlimit="10"/>
<path d="M-16.8312 954.607C-7.32987 884.942 41.7987 817.693 105.952 798.664C159.946 782.652 218.698 798.681 270.091 820.409C316.619 840.07 362.932 859.815 404.686 850.734C457.762 839.204 491.575 786.201 547.589 751.26C598.661 719.385 649.87 699.874 702.395 701.023C736.683 701.773 771.95 714.42 805.809 731.049C895.375 775.037 916.612 875.261 994.046 893.906C1072.64 912.551 1125 881.726 1150.44 849.168C1180.03 811.328 1206.98 720.785 1150.31 645.021C1122.69 608.098 1094.84 565.709 1068.48 521.987C1034.55 465.718 1028.67 389.222 1060.49 337.185C1085.02 297.079 1127.8 270.153 1153.79 225.265C1174.02 190.34 1182.89 151.201 1182.51 114.61C1182.08 73.9377 1171.27 34.198 1151.19 -1.64258" stroke="#D2BEBE" stroke-miterlimit="10"/>
<path d="M-14.5054 957.441C-2.9997 886.143 45.8535 816.561 111.537 796.183C165.806 779.337 225.415 794.967 276.808 818.027C322.739 838.622 367.614 860.416 409.246 854.318C462.092 846.587 498.583 798.049 554.536 763.625C606.525 731.633 657.046 708.289 710.413 706.956C745.863 706.057 782.721 717.754 817.819 734.499C904.54 775.872 927.735 870.597 1003.15 888.942C1078.88 907.087 1130.84 879.128 1157.13 847.186C1187.29 810.563 1212.76 723.752 1161.32 649.838C1135.34 612.498 1109.04 569.692 1083.12 526.254C1050.53 471.601 1043.82 398.537 1072.54 347.351C1095.19 306.978 1135.82 278.635 1161.7 234.414C1182.24 199.339 1192.61 160.683 1194 123.976C1195.56 82.5534 1186.63 41.3808 1167.7 3.89062" stroke="#D2BEBE" stroke-miterlimit="10"/>
<path d="M-12.1799 960.273C1.31478 887.359 49.9079 815.427 117.121 793.683C171.681 776.038 232.132 791.217 283.525 815.611C328.874 837.138 372.296 860.966 413.79 857.866C466.407 853.934 505.575 809.879 561.451 775.971C614.343 743.88 664.176 716.653 718.415 712.854C755.012 710.288 793.477 721.086 829.815 737.914C913.644 776.754 938.858 865.881 1012.22 883.959C1085.1 901.605 1136.64 876.495 1163.78 845.203C1194.49 809.796 1218.59 726.584 1172.31 654.636C1147.98 616.813 1123.19 573.641 1097.75 530.502C1066.49 477.483 1058.9 407.784 1084.56 357.497C1105.32 316.825 1143.82 287.116 1169.58 243.527C1190.41 208.32 1202.34 170.13 1205.46 133.306C1209.04 91.1339 1201.97 48.5451 1184.18 9.38867" stroke="#D6C6C6" stroke-miterlimit="10"/>
<path d="M-9.85449 963.088C5.6292 888.541 53.9622 814.31 122.705 791.167C177.556 772.705 238.864 787.451 290.241 813.194C335.009 835.622 376.962 861.531 418.349 861.415C470.721 861.265 512.582 821.709 568.397 788.317C622.207 756.126 671.336 724.984 726.432 718.752C764.177 714.487 804.233 724.434 841.825 741.33C922.732 777.703 949.997 861.165 1021.33 878.96C1091.32 896.106 1142.47 873.828 1170.47 843.186C1201.73 808.979 1224.56 729.249 1183.34 659.418C1160.69 621.061 1137.38 577.589 1112.41 534.734C1082.48 483.364 1073.97 416.965 1096.62 367.628C1115.44 326.622 1151.85 295.563 1177.51 252.624C1198.64 217.267 1212.13 179.56 1216.97 142.637C1222.6 99.7145 1217.37 55.6927 1200.72 14.8867" stroke="#D9CCCC" stroke-miterlimit="10"/>
<path d="M-7.52881 965.921C9.95919 889.758 58.0168 813.211 128.29 788.684C183.432 769.439 245.596 783.686 296.958 810.795C341.16 834.122 381.644 862.098 422.893 864.981C475.036 868.613 519.59 833.556 575.313 800.665C630.041 768.373 678.451 733.282 734.434 724.651C773.311 718.669 814.958 727.817 853.82 744.763C931.79 778.737 961.089 856.633 1030.41 873.979C1097.52 890.758 1148.27 871.179 1177.14 841.187C1208.92 808.163 1230.63 731.799 1194.34 664.2C1173.42 625.244 1151.54 581.539 1127.05 538.966C1098.44 489.23 1088.97 426.096 1108.66 377.775C1125.52 336.403 1159.87 304.045 1185.4 261.756C1206.84 226.265 1221.91 189.041 1228.44 151.985C1236.14 108.313 1232.73 62.8745 1217.21 20.4023" stroke="#DED5D5" stroke-miterlimit="10"/>
<path d="M-5.20312 968.753C14.2739 890.957 62.0867 812.128 133.875 786.184C189.322 766.156 252.328 779.903 303.675 808.395C347.296 832.606 386.326 862.664 427.437 868.53C479.351 875.944 526.597 845.402 582.244 813.011C637.89 780.636 685.565 741.546 742.436 730.566C782.445 722.834 825.668 731.249 865.816 748.194C940.817 779.819 972.213 851.951 1039.49 868.996C1103.73 885.275 1154.05 868.513 1183.8 839.187C1216.1 807.346 1236.83 734.231 1205.32 668.998C1186.2 629.376 1165.68 585.504 1141.68 543.215C1114.38 495.127 1103.89 435.21 1120.68 387.922C1135.53 346.15 1167.87 312.509 1193.3 270.869C1215.04 235.245 1231.72 198.522 1239.92 161.331C1249.71 116.943 1248.09 70.0388 1233.72 25.917" stroke="#D9CCCC" stroke-miterlimit="10"/>
<path d="M-2.87729 971.587C18.5887 892.175 66.1567 811.063 139.459 783.687C195.213 762.875 259.076 776.089 310.392 805.997C353.462 831.091 391.008 863.232 431.997 872.097C483.681 883.294 533.62 857.267 589.175 825.376C645.739 792.917 692.665 749.812 750.453 736.482C791.58 727.001 836.379 734.733 877.842 751.628C949.859 780.987 983.366 847.253 1048.61 864.016C1109.99 879.795 1159.87 865.832 1190.5 837.189C1223.32 806.497 1243.22 736.566 1216.36 673.799C1199.1 633.476 1179.87 589.487 1156.33 547.465C1130.34 501.044 1118.77 444.292 1132.74 398.071C1145.5 355.865 1175.92 320.991 1201.21 279.985C1223.26 244.245 1241.56 208.004 1251.41 170.664C1263.33 125.559 1263.45 77.205 1250.23 31.417" stroke="#DBD1D1" stroke-miterlimit="10"/>
<path d="M-0.551758 974.401C22.9033 893.355 70.2418 809.977 145.044 781.185C201.103 759.607 265.838 772.27 317.109 803.579C359.612 829.539 395.69 863.763 436.541 875.643C487.995 890.606 540.628 869.112 596.106 837.72C653.604 805.179 699.749 758.041 758.455 742.378C800.699 731.115 847.073 738.229 889.837 755.042C958.856 782.168 994.474 842.535 1057.68 859.014C1116.2 874.277 1165.62 863.13 1197.15 835.171C1230.48 805.628 1249.74 738.796 1227.34 678.562C1212.07 637.472 1193.99 593.417 1170.96 551.678C1146.27 506.907 1133.55 453.321 1144.77 408.183C1155.37 365.527 1183.94 329.437 1209.09 289.08C1231.46 253.206 1251.36 217.482 1262.88 179.976C1276.94 134.188 1278.81 84.3507 1266.72 36.8965" stroke="#DBD1D1" stroke-miterlimit="10"/>
<path d="M1.77393 977.237C27.2333 894.558 74.327 808.931 150.644 778.689C207.009 756.361 272.616 768.458 323.841 801.183C365.809 827.993 400.387 864.316 441.116 879.213C492.356 897.941 547.666 880.995 603.052 850.07C661.483 817.462 706.848 766.242 766.488 748.28C809.818 735.217 857.768 741.799 901.863 758.461C967.867 783.421 1005.63 837.823 1066.8 854.019C1122.46 868.765 1171.42 860.401 1203.86 833.158C1237.67 804.749 1256.47 740.982 1238.39 683.347C1225.23 641.442 1208.16 597.386 1185.63 555.914C1162.22 512.809 1148.29 462.372 1156.84 418.317C1165.21 375.211 1192 337.904 1217.03 298.181C1239.7 262.174 1261.25 226.983 1274.4 189.31C1290.61 142.839 1294.22 91.5022 1283.28 42.3984" stroke="#E3E3E3" stroke-miterlimit="10"/>
<path d="M4.09961 980.068C31.548 895.773 78.4121 807.896 156.228 776.205C212.9 753.111 279.394 764.624 330.558 798.782C371.975 826.442 405.1 864.798 445.66 882.777C496.717 905.171 554.673 892.874 609.983 862.432C669.347 829.757 713.901 774.472 774.49 754.194C818.906 739.331 868.432 745.429 913.858 761.908C976.849 784.736 1016.78 833.006 1075.89 849.052C1128.7 863.165 1177.19 857.7 1210.53 831.174C1244.83 803.881 1263.36 743.18 1249.39 688.144C1238.54 645.406 1222.28 601.384 1200.28 560.161C1178.15 518.722 1162.93 471.435 1168.88 428.462C1174.92 384.907 1200.03 346.384 1224.92 307.294C1247.92 271.17 1271.1 236.513 1285.88 198.639C1304.26 151.518 1309.58 98.6655 1299.77 47.8955" stroke="#E9E9E9" stroke-miterlimit="10"/>
<path d="M6.4248 982.883C35.8622 896.956 82.5121 806.863 161.812 773.688C218.805 749.844 286.187 760.758 337.274 796.366C378.171 824.858 409.796 865.347 450.219 886.325C501.046 912.502 561.711 904.737 616.914 874.778C677.211 842.054 720.939 782.652 782.507 760.108C828.009 743.446 879.081 749.145 925.868 765.34C985.845 786.102 1027.92 828.307 1084.97 844.07C1134.93 857.683 1182.94 854.95 1217.2 829.174C1251.99 802.997 1270.44 745.412 1260.39 692.943C1252.04 649.371 1236.4 605.382 1214.9 564.41C1194.05 524.653 1177.46 480.548 1180.91 438.609C1184.52 394.621 1208.06 354.881 1232.82 316.408C1256.15 280.167 1280.95 246.06 1297.35 207.986C1317.9 160.232 1324.93 105.83 1316.27 53.4102" stroke="#EEEEEE" stroke-miterlimit="10"/>
<path d="M8.75049 985.716C40.1922 898.173 86.5974 805.847 167.397 771.189C224.711 746.612 292.98 756.893 343.991 793.95C384.352 823.276 414.478 865.898 454.763 889.858C505.376 919.817 568.78 916.718 623.845 887.109C685.137 854.468 727.977 790.818 790.509 765.991C837.067 747.496 889.714 752.911 937.879 768.74C994.841 787.452 1039.06 823.576 1094.08 839.055C1141.17 852.168 1188.71 852.168 1223.88 827.141C1259.17 802.048 1277.72 747.712 1271.41 697.692C1265.79 653.32 1250.51 609.332 1229.56 568.609C1209.98 530.536 1191.97 489.646 1192.96 448.707C1194.05 404.335 1216.19 363.363 1240.73 325.489C1264.44 289.182 1290.84 255.591 1308.85 217.284C1331.58 168.914 1340.3 112.962 1332.79 58.876" stroke="#F4F4F4" stroke-miterlimit="10"/>
<path d="M11.0762 988.548C44.5069 899.372 90.759 804.963 172.982 768.706C230.648 743.479 299.789 753.043 350.708 791.567C390.564 821.725 419.16 866.497 459.308 893.44C509.691 927.198 575.772 928.564 630.76 899.472C692.971 866.73 734.969 799.015 798.511 771.905C846.124 751.577 900.317 756.809 949.874 772.172C1003.84 788.901 1050.18 818.893 1103.15 834.072C1147.38 846.669 1194.43 849.385 1230.54 825.141C1266.3 801.114 1285.15 750.211 1282.41 702.49C1279.81 657.402 1264.58 613.347 1244.2 572.874C1225.87 536.484 1206.4 498.893 1205 458.871C1203.46 414.182 1224.2 371.86 1248.64 334.62C1272.66 298.163 1300.71 265.188 1320.34 226.631C1345.26 177.661 1355.68 120.126 1349.3 64.3906" stroke="#F9F9F9" stroke-miterlimit="10"/>
<path d="M13.4019 991.382C48.8216 900.573 94.8136 803.848 178.566 766.208C236.523 740.165 306.613 749.146 357.424 789.169C396.761 820.144 423.857 867.065 463.867 897.007C514.036 934.547 582.779 940.412 637.707 911.836C700.82 878.995 741.992 807.214 806.528 777.822C855.198 755.661 910.92 760.843 961.885 775.622C1012.85 790.402 1061.32 814.212 1112.25 829.125C1153.61 841.222 1200.2 846.637 1237.23 823.176C1273.47 800.216 1292.75 752.978 1293.42 707.323C1294.1 661.669 1278.67 617.397 1258.84 577.157C1241.75 542.45 1220.76 508.242 1217.04 469.069C1212.78 424.148 1232.21 380.376 1256.53 343.785C1280.86 307.195 1310.57 274.82 1331.81 236.03C1358.94 186.477 1371.04 127.359 1365.81 69.957" stroke="#FCFCFC" stroke-miterlimit="10"/>
</g>
</svg>
