<svg width="153" height="38" viewBox="0 0 153 38" fill="none" xmlns="http://www.w3.org/2000/svg">
<path d="M13.936 37.7548H8.32149L16.7779 6.40577H22.3924L13.936 37.7548ZM5.6145 37.7548H0L8.45517 6.40577H14.0697L5.6145 37.7548ZM24.9992 6.80673C25.2219 5.95645 24.9098 5.53096 24.0634 5.53096H6.01553L9.09014 0.245605H28.2743C29.5442 0.245605 30.4353 0.65883 30.9479 1.48493C31.4601 2.31138 31.5494 3.34391 31.2152 4.58324L22.2588 37.7548H16.6443L24.9992 6.80673Z" fill="#FCFCFC"/>
<path d="M31.1143 11.2539H40.6736L39.369 16.0289H34.8907L33.32 21.8625H37.698L36.428 26.5646H32.0501L30.3791 32.7248H35.0244L33.3534 37.755H23.9625L31.1143 11.2539Z" fill="#FCFCFC"/>
<path d="M51.9697 19.3095L47.0892 20.5502L48.4259 15.5186H46.7884C46.521 15.5186 46.3205 15.5674 46.1868 15.6644C46.0532 15.7619 45.9416 15.9806 45.8526 16.3206L41.742 31.5583C41.519 32.3361 41.7642 32.7248 42.4773 32.7248H48.0583L46.2537 37.755H39.67C39.0906 37.755 38.5559 37.6638 38.0659 37.4816C37.5755 37.2993 37.169 37.014 36.846 36.625C36.5228 36.2363 36.3113 35.7383 36.2111 35.1305C36.1108 34.5231 36.1831 33.7818 36.4283 32.907L41.6083 13.7326C41.8757 12.7365 42.2709 12.074 42.7947 11.746C43.3182 11.4179 43.9921 11.2539 44.8166 11.2539H54.142L51.9697 19.3095Z" fill="#FCFCFC"/>
<path d="M60.825 17.0131L56.4136 29.0068H58.9201L60.825 17.0131ZM48.0587 37.755L58.7196 11.2539H65.9061L62.5962 37.755H57.5833L58.3519 32.9799H55.0434L53.3056 37.755H48.0587Z" fill="#FCFCFC"/>
<path d="M70.8848 11.2539H75.196L75.3631 21.498L78.1369 11.2539H83.0175L75.8644 37.755H71.8206L71.3861 27.1843L68.4786 37.755H63.733L70.8848 11.2539Z" fill="#FCFCFC"/>
<path d="M91.7056 6.40577L83.217 37.7548H77.6025L86.0577 6.40577H91.7056ZM81.145 5.53096L83.2505 0.245605H98.324L96.887 5.53096H81.145Z" fill="#FCFCFC"/>
<path d="M90.0014 37.755H84.955L92.1068 11.2539H101.299C102.39 11.2539 103.125 11.5942 103.504 12.2745C103.883 12.9552 103.95 13.7326 103.705 14.6074L101.265 23.6121C101.154 24.0011 100.925 24.3593 100.579 24.6874C100.233 25.0154 99.7487 25.1795 99.1249 25.1795C99.5035 25.2524 99.8268 25.5198 100.094 25.9814C100.361 26.4433 100.361 27.1478 100.094 28.0955L97.4874 37.755H92.441L95.2483 27.3665C95.3151 27.1478 95.3206 26.9414 95.265 26.7469C95.2091 26.5527 95.0253 26.4552 94.7136 26.4552H93.0426L90.0014 37.755ZM95.8164 22.555C96.0613 22.555 96.2897 22.4884 96.5015 22.3545C96.7129 22.221 96.8746 21.9476 96.9861 21.5344L98.3229 16.6122C98.5234 15.8831 98.267 15.5186 97.5542 15.5186H95.9835L94.0786 22.555H95.8164Z" fill="#FCFCFC"/>
<path d="M110.789 15.5186C110.544 15.5186 110.365 15.5796 110.254 15.7009C110.143 15.8225 110.065 15.9806 110.02 16.1747L105.542 32.6883C105.43 33.1257 105.586 33.3444 106.01 33.3444H107.313C107.736 33.3444 108.004 33.1257 108.115 32.6883L112.56 16.2112C112.671 15.7496 112.504 15.5186 112.059 15.5186H110.789ZM116.037 11.2539C116.817 11.2539 117.39 11.5637 117.758 12.1834C118.126 12.8031 118.209 13.5019 118.009 14.2793L112.426 34.9483C112.114 36.0418 111.596 36.7831 110.872 37.1717C110.148 37.5608 109.363 37.755 108.516 37.755H102.534C102.111 37.755 101.721 37.6761 101.364 37.518C101.008 37.3603 100.713 37.1234 100.479 36.8072C100.245 36.4915 100.089 36.1087 100.011 35.659C99.9329 35.2097 99.9718 34.7054 100.128 34.1463L105.609 13.8419C105.787 13.0645 106.149 12.4386 106.695 11.9647C107.241 11.4908 107.926 11.2539 108.75 11.2539H116.037Z" fill="#FCFCFC"/>
<path d="M120.481 11.2539H124.792L124.959 21.498L127.733 11.2539H132.613L125.46 37.755H121.417L120.982 27.1843L118.075 37.755H113.329L120.481 11.2539Z" fill="#FCFCFC"/>
<path d="M132.312 37.755H127.132L134.284 11.2539H139.464L132.312 37.755Z" fill="#FCFCFC"/>
<path d="M150.828 19.3095L145.947 20.5502L147.284 15.5186H145.646C145.379 15.5186 145.179 15.5674 145.045 15.6644C144.911 15.7619 144.8 15.9806 144.711 16.3206L140.6 31.5583C140.377 32.3361 140.622 32.7248 141.335 32.7248H146.916L145.112 37.755H138.528C137.949 37.755 137.414 37.6638 136.924 37.4816C136.433 37.2993 136.027 37.014 135.704 36.625C135.381 36.2363 135.169 35.7383 135.069 35.1305C134.969 34.5231 135.041 33.7818 135.286 32.907L140.466 13.7326C140.734 12.7365 141.129 12.074 141.653 11.746C142.176 11.4179 142.85 11.2539 143.675 11.2539H153L150.828 19.3095Z" fill="#FCFCFC"/>
</svg>
