<svg width="655" height="600" viewBox="0 0 655 600" fill="none" xmlns="http://www.w3.org/2000/svg">
<rect width="655" height="600" fill="#F1F1F1"/>
<path d="M199.735 226.951C199.735 214.035 205.12 201.648 214.704 192.515C224.288 183.382 237.287 178.251 250.841 178.251H404.159C417.713 178.251 430.712 183.382 440.296 192.515C449.88 201.648 455.265 214.035 455.265 226.951V373.049C455.265 385.965 449.88 398.352 440.296 407.485C430.712 416.618 417.713 421.749 404.159 421.749H250.841C237.287 421.749 224.288 416.618 214.704 407.485C205.12 398.352 199.735 385.965 199.735 373.049V226.951Z" stroke="#D9D9D9" stroke-width="11" stroke-linecap="round" stroke-linejoin="round"/>
<path d="M282.782 287.825C300.422 287.825 314.723 274.197 314.723 257.387C314.723 240.577 300.422 226.95 282.782 226.95C265.141 226.95 250.84 240.577 250.84 257.387C250.84 274.197 265.141 287.825 282.782 287.825Z" stroke="#D9D9D9" stroke-width="11" stroke-linecap="round" stroke-linejoin="round"/>
<path d="M359.772 307.56L250.84 421.748H405.857C418.961 421.748 431.527 416.788 440.793 407.959C450.058 399.13 455.264 387.155 455.264 374.668V373.049C455.264 367.375 453.028 365.196 449.003 360.996L397.514 307.487C395.114 304.993 392.195 303.003 388.943 301.643C385.691 300.284 382.178 299.585 378.626 299.592C375.075 299.599 371.564 300.311 368.318 301.683C365.072 303.055 362.161 305.057 359.772 307.56V307.56Z" stroke="#D9D9D9" stroke-width="11" stroke-linecap="round" stroke-linejoin="round"/>
</svg>
