<svg width="58" height="56" viewBox="0 0 58 56" fill="none" xmlns="http://www.w3.org/2000/svg">
<path d="M26.0627 3.43805C27.2793 1.1476 30.5614 1.1476 31.7779 3.43805L38.1066 15.3539C38.5741 16.2345 39.4218 16.8502 40.4038 17.0229L53.692 19.3597C56.2465 19.8088 57.2605 22.9302 55.458 24.7949L46.0811 34.4962C45.3881 35.2129 45.0645 36.2094 45.2037 37.1966L47.0877 50.5566C47.4498 53.1247 44.7944 55.0537 42.4642 53.9157L30.3401 47.9957C29.4442 47.558 28.3965 47.558 27.5006 47.9957L15.3766 53.9157C13.0461 55.0537 10.391 53.1247 10.7531 50.5566L12.637 37.1966C12.7762 36.2094 12.4525 35.2129 11.7596 34.4962L2.38261 24.7949C0.580175 22.9302 1.59438 19.8088 4.14865 19.3597L17.437 17.0229C18.419 16.8502 19.2665 16.2344 19.7341 15.3539L26.0627 3.43805Z" stroke="#C5C5C5" stroke-width="1.5"/>
</svg>
