<svg width="96" height="96" viewBox="0 0 96 96" fill="none" xmlns="http://www.w3.org/2000/svg">
<mask id="mask0_1712_12853" style="mask-type:luminance" maskUnits="userSpaceOnUse" x="13" y="7" width="70" height="66">
<path d="M13.3882 7.28003H82.6882V72.704H13.3882V7.28003Z" fill="white"/>
</mask>
<g mask="url(#mask0_1712_12853)">
<path d="M75.2554 14.482H61.4384V10.094C61.4384 8.26196 59.9516 6.78003 58.1194 6.78003H38.0514C36.218 6.78003 34.7324 8.26208 34.7324 10.094V14.482H20.9144C16.5748 14.482 13.0474 18.0063 13.0474 22.337V71.538C13.0474 72.3262 13.6852 72.964 14.4734 72.964H28.0564C28.8417 72.964 29.4864 72.329 29.4864 71.538C29.4864 70.7485 28.8431 70.11 28.0564 70.11H15.9004V22.337C15.9004 19.5814 18.1503 17.336 20.9144 17.336H34.7324V21.596C34.7324 23.4277 36.2178 24.911 38.0514 24.911H58.1194C59.9518 24.911 61.4384 23.4279 61.4384 21.596V17.336H75.2554C78.0194 17.336 80.2694 19.5814 80.2694 22.337V46.4735V70.11H68.0854C67.2965 70.11 66.6584 70.7506 66.6584 71.538C66.6584 72.3269 67.2979 72.964 68.0854 72.964H81.6964C82.4852 72.964 83.1234 72.3265 83.1234 71.538V22.337C83.1234 18.0062 79.5959 14.482 75.2554 14.482Z" fill="#100F0D" stroke="black"/>
</g>
<path d="M31.3491 59.7499L48.0851 68.9019L64.8201 59.7499L48.0851 50.2639L31.3491 59.7499Z" fill="#100F0D"/>
<mask id="mask1_1712_12853" style="mask-type:luminance" maskUnits="userSpaceOnUse" x="31" y="61" width="35" height="28">
<path d="M31.2319 61.9519H65.0239V88.6879H31.2319V61.9519Z" fill="white"/>
</mask>
<g mask="url(#mask1_1712_12853)">
<path d="M31.3491 62.011V79.043L48.0851 88.688L64.8201 79.043V62.011L48.0851 71.16L31.3491 62.011Z" fill="#100F0D"/>
</g>
<path d="M47.05 38.5899C47.05 39.1019 47.467 39.5189 47.977 39.5189C48.489 39.5189 48.907 39.1019 48.907 38.5899V32.1319H53.943C54.634 32.1319 55.191 31.5749 55.191 30.8849V26.2649H40.978V30.8849C40.978 31.5749 41.536 32.1319 42.227 32.1319H47.05V38.5899Z" fill="#100F0D"/>
</svg>
