<svg width="94" height="96" viewBox="0 0 94 96" fill="none" xmlns="http://www.w3.org/2000/svg">
<path d="M27.8229 63.692C27.9257 69.119 32.9028 73.504 39.0069 73.504C39.8431 73.517 40.6715 73.44 41.4921 73.272C42.3126 73.103 43.1057 72.848 43.8724 72.506C44.6391 72.164 45.3617 71.743 46.0403 71.243C46.7179 70.743 47.3367 70.175 47.8958 69.539C48.1112 69.286 48.2189 68.992 48.2189 68.657V27.279C48.2189 26.944 48.1112 26.65 47.8958 26.397C47.3367 25.761 46.7179 25.193 46.0403 24.693C45.3617 24.192 44.6391 23.771 43.8724 23.429C43.1057 23.087 42.3126 22.832 41.4921 22.664C40.6715 22.496 39.8431 22.418 39.0069 22.432C32.8382 22.432 27.8209 26.91 27.8209 32.416C27.8219 32.923 27.8718 33.426 27.9698 33.923C27.535 34.099 27.1149 34.306 26.7096 34.545C26.3032 34.784 25.9174 35.051 25.5502 35.348C25.1831 35.644 24.8384 35.966 24.5172 36.314C24.1961 36.661 23.9013 37.031 23.633 37.423C23.3647 37.814 23.1248 38.224 22.9153 38.651C22.7058 39.079 22.5276 39.519 22.3807 39.973C22.2338 40.427 22.1192 40.889 22.0389 41.36C21.9587 41.831 21.9117 42.306 21.8989 42.783C21.9019 43.337 21.9528 43.886 22.0546 44.431C22.1555 44.975 22.3033 45.506 22.4992 46.022C22.694 46.539 22.9339 47.033 23.2179 47.505C23.5018 47.977 23.8249 48.419 24.1872 48.831C23.8249 49.243 23.5018 49.685 23.2179 50.157C22.9339 50.63 22.694 51.124 22.4992 51.641C22.3033 52.157 22.1555 52.688 22.0546 53.232C21.9538 53.776 21.9019 54.325 21.8989 54.879C21.9117 55.351 21.9587 55.819 22.038 56.283C22.1163 56.748 22.2279 57.204 22.3709 57.652C22.5138 58.1 22.6881 58.536 22.8928 58.959C23.0964 59.381 23.3295 59.787 23.5909 60.176C23.8524 60.564 24.1393 60.932 24.4526 61.279C24.7649 61.625 25.1008 61.947 25.4582 62.245C25.8166 62.542 26.1936 62.812 26.5901 63.055C26.9857 63.297 27.3969 63.509 27.8229 63.692ZM26.9123 47.818C26.548 47.511 26.219 47.168 25.9272 46.789C25.6354 46.409 25.3867 46.002 25.1811 45.568C24.9755 45.133 24.8178 44.681 24.7082 44.211C24.5985 43.742 24.5388 43.266 24.5309 42.783C24.5515 42.393 24.6024 42.007 24.6827 41.625C24.764 41.244 24.8736 40.871 25.0117 40.506C25.1498 40.142 25.3162 39.791 25.5081 39.454C25.701 39.117 25.9194 38.797 26.1612 38.494C26.4041 38.192 26.6675 37.911 26.9534 37.652C27.2393 37.392 27.5438 37.157 27.866 36.947C28.1881 36.736 28.5249 36.553 28.8755 36.397C29.226 36.241 29.5864 36.114 29.9575 36.016C29.979 36.009 29.9937 35.991 30.0143 35.983C30.2336 35.994 30.45 36.025 30.6625 36.077C30.8759 36.129 31.0825 36.2 31.2833 36.291C31.483 36.382 31.6739 36.491 31.8541 36.618C32.0343 36.745 32.2027 36.888 32.3574 37.046C32.5121 37.205 32.6512 37.376 32.7745 37.561C32.8979 37.746 33.0046 37.941 33.0928 38.145C33.1809 38.35 33.2504 38.562 33.3003 38.78C33.3503 38.997 33.3806 39.218 33.3914 39.442H36.0234C36.0185 39.254 36.0058 39.066 35.9842 38.879C35.9627 38.692 35.9333 38.507 35.8961 38.323C35.8589 38.138 35.8129 37.956 35.76 37.776C35.7062 37.596 35.6445 37.419 35.5759 37.244C35.5064 37.07 35.43 36.899 35.3458 36.732C35.2616 36.564 35.1706 36.401 35.0726 36.242C34.9737 36.083 34.869 35.928 34.7573 35.779C34.6447 35.63 34.5263 35.486 34.4019 35.347C34.2776 35.208 34.1473 35.076 34.0112 34.949C33.8751 34.822 33.7331 34.702 33.5863 34.588C33.4394 34.475 33.2876 34.368 33.1319 34.268C32.9753 34.168 32.8157 34.076 32.6512 33.991C32.4867 33.906 32.3192 33.828 32.1479 33.758C31.9775 33.688 31.8032 33.627 31.6269 33.573C31.4497 33.519 31.2715 33.473 31.0913 33.436C30.9102 33.398 30.7291 33.369 30.5459 33.348C30.4862 33.04 30.4549 32.73 30.4529 32.416C30.4529 28.393 34.2903 25.12 39.0069 25.12C39.615 25.109 40.2182 25.16 40.8164 25.272C41.4147 25.384 41.9963 25.555 42.5613 25.785C43.1263 26.016 43.6629 26.301 44.172 26.641C44.6812 26.98 45.1532 27.368 45.5869 27.804V44.332C45.2354 44.393 44.8898 44.477 44.55 44.585C44.2102 44.693 43.8783 44.824 43.5561 44.978C43.234 45.132 42.9226 45.307 42.623 45.505C42.3243 45.702 42.0394 45.918 41.7692 46.155C41.4989 46.391 41.2453 46.645 41.0083 46.917C40.7714 47.189 40.554 47.475 40.3552 47.777C40.1565 48.079 39.9783 48.393 39.8216 48.719C39.6649 49.046 39.5298 49.381 39.4182 49.727L39.3369 49.976L41.8348 50.821L41.9151 50.574C42.0541 50.15 42.2421 49.751 42.48 49.375C42.717 48.999 42.9961 48.659 43.3162 48.354C43.6374 48.05 43.9899 47.791 44.3737 47.577C44.7586 47.362 45.162 47.2 45.5869 47.09V68.132C45.1532 68.567 44.6812 68.955 44.172 69.295C43.6629 69.635 43.1263 69.92 42.5613 70.15C41.9963 70.381 41.4147 70.552 40.8164 70.664C40.2182 70.776 39.615 70.827 39.0069 70.816C34.5302 70.816 30.8514 67.865 30.4882 64.126C30.827 64.055 31.1569 63.957 31.4791 63.83C31.8003 63.702 32.1097 63.549 32.4064 63.368C32.7031 63.188 32.9821 62.983 33.2445 62.754C33.5079 62.525 33.7498 62.276 33.9711 62.005C34.1924 61.735 34.3902 61.447 34.5635 61.143C34.7378 60.838 34.8856 60.521 35.0061 60.191C35.1275 59.861 35.2215 59.523 35.2871 59.177C35.3527 58.831 35.3889 58.482 35.3967 58.129H32.7647C32.7559 58.341 32.7295 58.551 32.6844 58.759C32.6394 58.966 32.5777 59.168 32.4974 59.364C32.4181 59.56 32.3222 59.747 32.2096 59.926C32.0979 60.105 31.9716 60.273 31.8296 60.429C31.6886 60.585 31.5359 60.727 31.3694 60.855C31.2039 60.983 31.0287 61.096 30.8436 61.192C30.6586 61.289 30.4666 61.368 30.2679 61.43C30.0681 61.492 29.8654 61.536 29.6598 61.561C29.3053 61.452 28.9617 61.316 28.6287 61.153C28.2948 60.99 27.9756 60.801 27.6701 60.588C27.3646 60.375 27.0777 60.14 26.8075 59.881C26.5382 59.623 26.2885 59.345 26.0614 59.048C25.8332 58.751 25.6286 58.438 25.4474 58.109C25.2663 57.779 25.1106 57.438 24.9804 57.084C24.8511 56.731 24.7483 56.369 24.6729 56C24.5975 55.63 24.5495 55.256 24.5309 54.879C24.5397 54.397 24.5985 53.921 24.7082 53.451C24.8178 52.981 24.9755 52.529 25.1811 52.095C25.3867 51.66 25.6354 51.253 25.9282 50.873C26.22 50.494 26.548 50.15 26.9132 49.843C26.9837 49.78 27.0474 49.71 27.1032 49.633C27.16 49.556 27.207 49.474 27.2462 49.387C27.2843 49.299 27.3137 49.209 27.3343 49.115C27.3539 49.021 27.3637 48.927 27.3637 48.831C27.3637 48.735 27.3539 48.64 27.3333 48.546C27.3137 48.452 27.2843 48.362 27.2452 48.274C27.207 48.187 27.159 48.105 27.1032 48.028C27.0464 47.951 26.9837 47.881 26.9123 47.818Z" fill="black"/>
<path d="M54.5436 72.955L57.0454 69.472H60.1454C60.1983 69.651 60.26 69.826 60.3324 69.997C60.4059 70.168 60.4881 70.334 60.5792 70.495C60.6712 70.656 60.7721 70.812 60.8827 70.96C60.9924 71.109 61.1109 71.251 61.2372 71.386C61.3635 71.52 61.4976 71.647 61.6386 71.765C61.7796 71.883 61.9275 71.993 62.0812 72.093C62.2359 72.193 62.3946 72.284 62.5591 72.365C62.7236 72.446 62.8929 72.517 63.0653 72.577C63.2386 72.638 63.4139 72.688 63.5921 72.727C63.7713 72.766 63.9514 72.794 64.1326 72.812C64.3147 72.829 64.4968 72.835 64.6799 72.83C64.8621 72.825 65.0442 72.809 65.2243 72.783C65.4055 72.756 65.5837 72.718 65.7599 72.669C65.9372 72.621 66.1095 72.561 66.2789 72.492C66.4483 72.422 66.6138 72.343 66.7734 72.253C66.934 72.163 67.0877 72.064 67.2365 71.956C67.3854 71.847 67.5273 71.73 67.6625 71.605C67.7976 71.479 67.9249 71.346 68.0443 71.205C68.1638 71.063 68.2744 70.916 68.3763 70.761C68.4791 70.606 68.5711 70.446 68.6553 70.28C68.7386 70.115 68.812 69.944 68.8766 69.769C68.9403 69.595 68.9932 69.417 69.0362 69.235C69.0793 69.054 69.1116 68.871 69.1332 68.685C69.1547 68.5 69.1655 68.314 69.1655 68.128C69.1655 67.941 69.1547 67.755 69.1332 67.57C69.1116 67.385 69.0793 67.202 69.0362 67.02C68.9932 66.839 68.9403 66.661 68.8766 66.486C68.812 66.311 68.7386 66.141 68.6553 65.975C68.5711 65.809 68.4791 65.649 68.3763 65.495C68.2744 65.34 68.1638 65.192 68.0443 65.051C67.9239 64.91 67.7976 64.777 67.6625 64.651C67.5273 64.525 67.3854 64.408 67.2365 64.3C67.0877 64.191 66.934 64.092 66.7734 64.003C66.6138 63.913 66.4483 63.833 66.2789 63.764C66.1095 63.694 65.9362 63.635 65.7599 63.586C65.5837 63.538 65.4055 63.5 65.2243 63.473C65.0442 63.446 64.8621 63.43 64.6799 63.425C64.4968 63.421 64.3147 63.427 64.1326 63.444C63.9514 63.461 63.7713 63.49 63.5921 63.529C63.4139 63.568 63.2386 63.618 63.0653 63.678C62.8929 63.739 62.7236 63.81 62.5591 63.891C62.3946 63.972 62.2359 64.062 62.0812 64.163C61.9275 64.263 61.7796 64.372 61.6386 64.491C61.4976 64.609 61.3635 64.735 61.2372 64.87C61.1109 65.004 60.9924 65.146 60.8827 65.295C60.7721 65.444 60.6712 65.599 60.5792 65.76C60.4881 65.921 60.4059 66.088 60.3324 66.259C60.26 66.43 60.1983 66.605 60.1454 66.784H56.3786C56.169 66.784 55.9702 66.832 55.7832 66.929C55.5962 67.025 55.4415 67.16 55.3171 67.332L52.8154 70.816H49.5352V73.504H53.4832C53.6927 73.504 53.8905 73.456 54.0775 73.359C54.2645 73.262 54.4192 73.128 54.5436 72.955ZM64.537 66.112C64.6662 66.112 64.7955 66.125 64.9218 66.151C65.0491 66.176 65.1724 66.215 65.2929 66.265C65.4123 66.316 65.5259 66.378 65.6336 66.452C65.7413 66.525 65.8412 66.609 65.9333 66.702C66.0243 66.796 66.1066 66.898 66.1781 67.008C66.2505 67.118 66.3112 67.234 66.3612 67.356C66.4101 67.479 66.4473 67.605 66.4728 67.734C66.4982 67.864 66.511 67.995 66.511 68.128C66.511 68.26 66.4982 68.391 66.4728 68.521C66.4473 68.651 66.4101 68.777 66.3612 68.899C66.3112 69.022 66.2505 69.138 66.1781 69.248C66.1066 69.358 66.0243 69.46 65.9333 69.553C65.8412 69.647 65.7413 69.73 65.6336 69.804C65.5259 69.878 65.4123 69.94 65.2929 69.99C65.1724 70.041 65.0491 70.079 64.9218 70.105C64.7955 70.131 64.6662 70.144 64.537 70.144C64.4077 70.144 64.2794 70.131 64.1522 70.105C64.0249 70.079 63.9015 70.041 63.782 69.99C63.6616 69.94 63.548 69.878 63.4403 69.804C63.3326 69.73 63.2327 69.647 63.1417 69.553C63.0496 69.46 62.9674 69.358 62.8959 69.248C62.8234 69.138 62.7627 69.022 62.7128 68.899C62.6638 68.777 62.6266 68.651 62.6012 68.521C62.5757 68.391 62.563 68.26 62.563 68.128C62.563 67.995 62.5757 67.864 62.6012 67.735C62.6266 67.605 62.6638 67.479 62.7138 67.357C62.7637 67.234 62.8244 67.118 62.8959 67.008C62.9683 66.898 63.0506 66.796 63.1417 66.703C63.2337 66.609 63.3336 66.526 63.4413 66.452C63.549 66.379 63.6626 66.317 63.782 66.266C63.9015 66.215 64.0249 66.177 64.1522 66.151C64.2794 66.125 64.4077 66.112 64.537 66.112Z" fill="black"/>
<path d="M74.407 54.6881C74.408 54.4081 74.3845 54.1301 74.3365 53.8541C74.2885 53.5791 74.217 53.3101 74.122 53.0471C74.0271 52.7851 73.9096 52.5331 73.7705 52.2921C73.6315 52.0511 73.4719 51.8241 73.2927 51.6121C73.1145 51.4001 72.9186 51.2061 72.7052 51.0301C72.4927 50.8531 72.2655 50.6981 72.0256 50.5631C71.7848 50.4281 71.5351 50.3171 71.2756 50.2271C71.0151 50.1381 70.7498 50.0741 70.4786 50.0331C70.2073 49.9931 69.9351 49.9771 69.661 49.9861C69.3868 49.9961 69.1165 50.0301 68.8482 50.0891C68.58 50.1471 68.3195 50.2301 68.0659 50.3371C67.8123 50.4431 67.5704 50.5721 67.3393 50.7231C67.1083 50.8741 66.8928 51.0441 66.6921 51.2341C66.4904 51.4251 66.3083 51.6321 66.1428 51.8551C65.9783 52.0791 65.8344 52.3161 65.711 52.5661C65.5876 52.8161 65.4877 53.0751 65.4094 53.3441H57.957C57.7259 53.3441 57.5095 53.4021 57.3088 53.5181C57.108 53.6351 56.9474 53.7941 56.829 53.9961L54.053 58.7201H49.5352V61.4081H54.7992C55.0302 61.4081 55.2457 61.3491 55.4474 61.2331C55.6481 61.1171 55.8077 60.9581 55.9272 60.7551L58.7021 56.0321H65.4094C65.4877 56.3001 65.5876 56.5591 65.711 56.8091C65.8344 57.0601 65.9783 57.2961 66.1428 57.5201C66.3083 57.7441 66.4904 57.9511 66.6921 58.1411C66.8928 58.3311 67.1083 58.5021 67.3393 58.6531C67.5704 58.8041 67.8123 58.9321 68.0659 59.0391C68.3195 59.1451 68.58 59.2281 68.8482 59.2871C69.1165 59.3461 69.3868 59.3801 69.661 59.3891C69.9351 59.3991 70.2073 59.3831 70.4786 59.3421C70.7498 59.3021 71.0151 59.2371 71.2756 59.1481C71.5351 59.0591 71.7857 58.9471 72.0256 58.8121C72.2655 58.6781 72.4927 58.5221 72.7052 58.3461C72.9186 58.1701 73.1145 57.9761 73.2927 57.7641C73.4719 57.5511 73.6315 57.3251 73.7705 57.0841C73.9096 56.8431 74.0271 56.5911 74.122 56.3281C74.217 56.0661 74.2885 55.7971 74.3365 55.5211C74.3845 55.2451 74.408 54.9681 74.407 54.6881ZM67.827 54.6881C67.827 54.5551 67.8397 54.4241 67.8652 54.2941C67.8906 54.1651 67.9278 54.0391 67.9768 53.9161C68.0267 53.7941 68.0874 53.6781 68.1599 53.5681C68.2314 53.4581 68.3136 53.3561 68.4057 53.2621C68.4967 53.1691 68.5966 53.0851 68.7043 53.0121C68.812 52.9381 68.9256 52.8761 69.046 52.8251C69.1655 52.7751 69.2889 52.7361 69.4162 52.7111C69.5435 52.6851 69.6717 52.6721 69.801 52.6721C69.9302 52.6721 70.0595 52.6851 70.1858 52.7111C70.3131 52.7361 70.4365 52.7751 70.5569 52.8251C70.6763 52.8761 70.7899 52.9381 70.8976 53.0121C71.0053 53.0851 71.1052 53.1691 71.1973 53.2621C71.2883 53.3561 71.3706 53.4581 71.4421 53.5681C71.5145 53.6781 71.5752 53.7941 71.6252 53.9161C71.6741 54.0391 71.7113 54.1651 71.7368 54.2941C71.7622 54.4241 71.775 54.5551 71.775 54.6881C71.775 54.8201 71.7622 54.9511 71.7368 55.0811C71.7113 55.2111 71.6741 55.3371 71.6252 55.4591C71.5752 55.5821 71.5145 55.6981 71.4421 55.8081C71.3706 55.9181 71.2883 56.0201 71.1973 56.1131C71.1052 56.2071 71.0053 56.2901 70.8976 56.3641C70.7899 56.4381 70.6763 56.5001 70.5569 56.5501C70.4365 56.6011 70.3131 56.6391 70.1858 56.6651C70.0595 56.6911 69.9302 56.7041 69.801 56.7041C69.6717 56.7041 69.5435 56.6911 69.4162 56.6651C69.2889 56.6391 69.1655 56.6001 69.046 56.5501C68.9266 56.4991 68.813 56.4371 68.7053 56.3631C68.5976 56.2901 68.4977 56.2061 68.4057 56.1131C68.3146 56.0191 68.2323 55.9171 68.1599 55.8071C68.0884 55.6971 68.0277 55.5811 67.9778 55.4591C67.9278 55.3371 67.8906 55.2111 67.8652 55.0811C67.8397 54.9511 67.827 54.8201 67.827 54.6881Z" fill="black"/>
<path d="M64.537 23.1039C64.2912 23.1049 64.0474 23.1259 63.8055 23.1659C63.5627 23.2069 63.3257 23.2669 63.0927 23.3469C62.8597 23.4269 62.6354 23.5249 62.4181 23.6409C62.2007 23.7579 61.9931 23.8909 61.7973 24.0409C61.6004 24.1919 61.4164 24.3569 61.246 24.5369C61.0756 24.7179 60.9199 24.9109 60.7799 25.1169C60.6399 25.3219 60.5165 25.5379 60.4098 25.7639C60.304 25.9899 60.2159 26.2229 60.1454 26.4639H57.0454L54.5436 22.9799C54.4192 22.8079 54.2645 22.6729 54.0775 22.5769C53.8905 22.4799 53.6927 22.4319 53.4832 22.4319H49.5352V25.1199H52.8154L55.3171 28.6029C55.4415 28.7759 55.5962 28.9099 55.7832 29.0069C55.9702 29.1039 56.169 29.1519 56.3786 29.1519H60.1454C60.2277 29.4289 60.3334 29.6949 60.4636 29.9519C60.5929 30.2089 60.7447 30.4519 60.9189 30.6799C61.0923 30.9079 61.2852 31.1179 61.4976 31.3099C61.7091 31.5019 61.9363 31.6719 62.1791 31.8209C62.421 31.9699 62.6756 32.0949 62.9409 32.1959C63.2063 32.2969 63.4775 32.3719 63.7566 32.4219C64.0356 32.4719 64.3167 32.4949 64.5996 32.4919C64.8826 32.4879 65.1627 32.4589 65.4407 32.4019C65.7188 32.3459 65.9891 32.2639 66.2515 32.1569C66.5149 32.0499 66.7656 31.9189 67.0045 31.7639C67.2444 31.6099 67.4676 31.4339 67.6752 31.2369C67.8818 31.0399 68.0698 30.8259 68.2392 30.5939C68.4076 30.3619 68.5535 30.1159 68.6779 29.8559C68.8022 29.5959 68.9021 29.3269 68.9775 29.0479C69.0529 28.7689 69.1018 28.4859 69.1263 28.1979C69.1508 27.9099 69.1488 27.6219 69.1204 27.3339C69.093 27.0459 69.0392 26.7639 68.9599 26.4859C68.8806 26.2089 68.7777 25.9409 68.6504 25.6829C68.5222 25.4249 68.3724 25.1809 68.201 24.9509C68.0297 24.7209 67.8387 24.5089 67.6282 24.3149C67.4187 24.1209 67.1925 23.9489 66.9516 23.7979C66.7107 23.6459 66.4571 23.5189 66.1937 23.4149C65.9293 23.3119 65.6581 23.2339 65.3791 23.1809C65.101 23.1289 64.8199 23.1029 64.537 23.1039ZM64.537 29.8239C64.4077 29.8239 64.2794 29.8109 64.1522 29.7849C64.0249 29.7589 63.9015 29.7209 63.782 29.6699C63.6616 29.6199 63.548 29.5579 63.4403 29.4839C63.3326 29.4099 63.2327 29.3269 63.1417 29.2329C63.0496 29.1399 62.9674 29.0379 62.8959 28.9279C62.8234 28.8179 62.7627 28.7019 62.7128 28.5789C62.6638 28.4569 62.6266 28.3309 62.6012 28.2009C62.5757 28.0709 62.563 27.9399 62.563 27.8079C62.563 27.6749 62.5757 27.5439 62.6012 27.4139C62.6266 27.2849 62.6638 27.1589 62.7128 27.0359C62.7627 26.9139 62.8234 26.7979 62.8959 26.6879C62.9674 26.5779 63.0496 26.4759 63.1417 26.3819C63.2327 26.2889 63.3326 26.2049 63.4403 26.1319C63.548 26.0579 63.6616 25.9959 63.782 25.9449C63.9015 25.8949 64.0249 25.8559 64.1522 25.8309C64.2794 25.8049 64.4077 25.7919 64.537 25.7919C64.6662 25.7919 64.7955 25.8049 64.9218 25.8309C65.0491 25.8559 65.1724 25.8949 65.2929 25.9449C65.4123 25.9959 65.5259 26.0579 65.6336 26.1319C65.7413 26.2049 65.8412 26.2889 65.9333 26.3819C66.0243 26.4759 66.1066 26.5779 66.1781 26.6879C66.2505 26.7979 66.3112 26.9139 66.3612 27.0359C66.4101 27.1589 66.4473 27.2849 66.4728 27.4139C66.4982 27.5439 66.511 27.6749 66.511 27.8079C66.511 27.9399 66.4982 28.0709 66.4728 28.2009C66.4473 28.3309 66.4101 28.4569 66.3602 28.5789C66.3102 28.7009 66.2495 28.8169 66.1781 28.9269C66.1056 29.0369 66.0243 29.1389 65.9323 29.2329C65.8402 29.3259 65.7413 29.4099 65.6336 29.4829C65.5259 29.5569 65.4114 29.6189 65.2919 29.6699C65.1724 29.7199 65.0491 29.7589 64.9218 29.7849C64.7945 29.8109 64.6662 29.8239 64.537 29.8239Z" fill="black"/>
<path d="M69.801 36.5441C69.5552 36.5451 69.3114 36.5661 69.0695 36.6061C68.8267 36.6471 68.5897 36.7071 68.3567 36.7871C68.1237 36.8671 67.8994 36.9651 67.6821 37.0811C67.4647 37.1981 67.2571 37.3311 67.0613 37.4811C66.8645 37.6321 66.6804 37.7971 66.51 37.9771C66.3396 38.1581 66.1839 38.3511 66.0439 38.5571C65.9039 38.7621 65.7805 38.9781 65.6738 39.2041C65.568 39.4301 65.4799 39.6631 65.4094 39.9041H58.5895L55.8263 36.3761C55.701 36.2161 55.5492 36.0921 55.369 36.0041C55.1889 35.9161 54.9989 35.8721 54.7992 35.8721H49.5352V38.5601H54.1666L56.9298 42.0881C57.0542 42.2471 57.2069 42.3711 57.3871 42.4591C57.5673 42.5481 57.7572 42.5921 57.957 42.5921H65.4094C65.4917 42.8691 65.5974 43.1351 65.7276 43.3921C65.8569 43.6491 66.0087 43.8921 66.183 44.1201C66.3563 44.3481 66.5492 44.5581 66.7616 44.7501C66.9731 44.9421 67.2003 45.1121 67.4431 45.2611C67.685 45.4101 67.9396 45.5351 68.2049 45.6361C68.4703 45.7371 68.7415 45.8121 69.0206 45.8621C69.2996 45.9121 69.5807 45.9351 69.8636 45.9321C70.1466 45.9281 70.4267 45.8991 70.7047 45.8421C70.9828 45.7861 71.2531 45.7041 71.5155 45.5971C71.7789 45.4901 72.0296 45.3591 72.2685 45.2041C72.5084 45.0501 72.7316 44.8741 72.9392 44.6771C73.1458 44.4801 73.3338 44.2661 73.5032 44.0341C73.6716 43.8021 73.8175 43.5551 73.9419 43.2961C74.0662 43.0361 74.1661 42.7671 74.2415 42.4881C74.3169 42.2091 74.3658 41.9261 74.3903 41.6381C74.4148 41.3501 74.4128 41.0621 74.3845 40.7741C74.357 40.4861 74.3032 40.2041 74.2239 39.9261C74.1446 39.6491 74.0417 39.3811 73.9145 39.1231C73.7862 38.8651 73.6364 38.6211 73.465 38.3911C73.2937 38.1611 73.1027 37.9491 72.8922 37.7551C72.6827 37.5611 72.4565 37.3891 72.2156 37.2381C71.9747 37.0861 71.7211 36.9591 71.4577 36.8551C71.1933 36.7521 70.9221 36.6741 70.6431 36.6211C70.365 36.5691 70.084 36.5431 69.801 36.5441ZM69.801 43.2641C69.6717 43.2641 69.5435 43.2511 69.4162 43.2251C69.2889 43.1991 69.1655 43.1611 69.046 43.1101C68.9256 43.0601 68.812 42.9981 68.7043 42.9241C68.5966 42.8501 68.4967 42.7671 68.4057 42.6731C68.3136 42.5801 68.2314 42.4781 68.1599 42.3681C68.0874 42.2581 68.0267 42.1421 67.9768 42.0191C67.9278 41.8971 67.8906 41.7711 67.8652 41.6411C67.8397 41.5111 67.827 41.3801 67.827 41.2481C67.827 41.1151 67.8397 40.9841 67.8652 40.8541C67.8906 40.7251 67.9278 40.5991 67.9768 40.4761C68.0267 40.3541 68.0874 40.2381 68.1599 40.1281C68.2314 40.0181 68.3136 39.9161 68.4057 39.8221C68.4967 39.7291 68.5966 39.6451 68.7043 39.5721C68.812 39.4981 68.9256 39.4361 69.046 39.3851C69.1655 39.3351 69.2889 39.2961 69.4162 39.2711C69.5435 39.2451 69.6717 39.2321 69.801 39.2321C69.9302 39.2321 70.0595 39.2451 70.1858 39.2711C70.3131 39.2961 70.4365 39.3351 70.5569 39.3851C70.6763 39.4361 70.7899 39.4981 70.8976 39.5721C71.0053 39.6451 71.1052 39.7291 71.1973 39.8221C71.2883 39.9161 71.3706 40.0181 71.4421 40.1281C71.5145 40.2381 71.5752 40.3541 71.6252 40.4761C71.6741 40.5991 71.7113 40.7251 71.7368 40.8541C71.7622 40.9841 71.775 41.1151 71.775 41.2481C71.775 41.3801 71.7622 41.5111 71.7368 41.6411C71.7113 41.7711 71.6741 41.8971 71.6242 42.0191C71.5742 42.1411 71.5135 42.2571 71.4421 42.3671C71.3696 42.4771 71.2873 42.5791 71.1963 42.6731C71.1042 42.7661 71.0053 42.8501 70.8976 42.9231C70.7899 42.9971 70.6754 43.0591 70.5559 43.1101C70.4365 43.1601 70.3131 43.1991 70.1858 43.2251C70.0585 43.2511 69.9302 43.2641 69.801 43.2641Z" fill="black"/>
<path d="M54.5366 9.77296C55.5011 9.97296 56.4548 10.21 57.4007 10.486C58.3466 10.761 59.2797 11.074 60.2021 11.423C61.1245 11.772 62.0312 12.157 62.9242 12.578C63.8172 12.999 64.6925 13.454 65.5503 13.945C66.409 14.435 67.2472 14.958 68.0658 15.514C68.8844 16.071 69.6804 16.658 70.4549 17.278C71.2285 17.897 71.9785 18.546 72.7031 19.224C73.4277 19.903 74.1258 20.609 74.7975 21.343C75.4683 22.076 76.1116 22.836 76.7255 23.62C77.3395 24.405 77.9221 25.212 78.4753 26.043C79.0275 26.873 79.5485 27.724 80.0361 28.596C80.5247 29.468 80.979 30.357 81.4001 31.265C81.8201 32.173 82.2059 33.095 82.5574 34.034C82.908 34.972 83.2223 35.922 83.5014 36.885C83.7804 37.848 84.0223 38.821 84.2279 39.803C84.4325 40.785 84.6 41.774 84.7302 42.769L87.3397 42.415C87.2006 41.35 87.0205 40.293 86.8011 39.243C86.5818 38.193 86.3233 37.154 86.0256 36.124C85.727 35.095 85.3911 34.078 85.0161 33.076C84.6401 32.073 84.2279 31.086 83.7785 30.116C83.328 29.145 82.8424 28.194 82.3205 27.262C81.7986 26.33 81.2424 25.42 80.652 24.532C80.0606 23.644 79.4368 22.781 78.7808 21.942C78.1247 21.104 77.4374 20.292 76.7196 19.508C76.0019 18.723 75.2558 17.968 74.4813 17.243C73.7058 16.518 72.9048 15.824 72.0774 15.162C71.25 14.5 70.3981 13.871 69.5228 13.276C68.6484 12.681 67.7515 12.122 66.834 11.598C65.9165 11.074 64.9804 10.587 64.0267 10.137C63.072 9.68696 62.1017 9.27496 61.1166 8.90196C60.1306 8.52796 59.1328 8.19396 58.1214 7.89996C57.1109 7.60496 56.0906 7.35096 55.0605 7.13696L54.5366 9.77296Z" fill="black"/>
<mask id="mask0_1712_12567" style="mask-type:luminance" maskUnits="userSpaceOnUse" x="49" y="6" width="4" height="4">
<path d="M49.3813 6.30396H52.3893V9.47196H49.3813V6.30396Z" fill="white"/>
</mask>
<g mask="url(#mask0_1712_12567)">
<path d="M52.3402 6.67104C51.4472 6.54904 50.5327 6.45704 49.622 6.39404L49.4468 9.07704C50.3035 9.13504 51.1525 9.22104 51.9926 9.33604L52.3402 6.67104Z" fill="black"/>
</g>
<mask id="mask1_1712_12567" style="mask-type:luminance" maskUnits="userSpaceOnUse" x="6" y="6" width="42" height="84">
<path d="M6.17285 6.30396H47.1255V89.632H6.17285V6.30396Z" fill="white"/>
</mask>
<g mask="url(#mask1_1712_12567)">
<path d="M46.9034 89.632V86.944C46.2787 86.944 45.655 86.928 45.0313 86.896C44.4075 86.865 43.7848 86.818 43.163 86.755C42.5422 86.692 41.9224 86.614 41.3046 86.52C40.6867 86.426 40.0718 86.317 39.4598 86.193C38.8468 86.068 38.2378 85.928 37.6327 85.773C37.0266 85.618 36.4254 85.448 35.8271 85.262C35.2298 85.077 34.6374 84.877 34.0499 84.662C33.4614 84.447 32.8788 84.217 32.3021 83.973C31.7254 83.729 31.1545 83.47 30.5905 83.198C30.0255 82.925 29.4684 82.638 28.9181 82.337C28.3668 82.036 27.8244 81.722 27.2888 81.394C26.7532 81.066 26.2254 80.725 25.7064 80.37C25.1875 80.016 24.6773 79.649 24.176 79.269C23.6737 78.889 23.1821 78.497 22.6994 78.092C22.2167 77.687 21.7447 77.271 21.2816 76.842C20.8194 76.414 20.367 75.974 19.9254 75.523C19.4838 75.072 19.054 74.61 18.6339 74.138C18.2148 73.665 17.8075 73.182 17.4109 72.689C17.0153 72.196 16.6315 71.694 16.2594 71.181C15.8873 70.669 15.528 70.148 15.1814 69.617C14.8347 69.087 14.5008 68.549 14.1797 68.001C13.8585 67.454 13.551 66.9 13.2563 66.337C12.9626 65.775 12.6815 65.205 12.4152 64.629C12.1479 64.052 11.8953 63.469 11.6564 62.88C11.4174 62.291 11.1922 61.696 10.9817 61.096C10.7722 60.495 10.5763 59.89 10.3952 59.28C10.214 58.669 10.0476 58.055 9.89582 57.436C9.74405 56.818 9.60696 56.195 9.48555 55.57C9.36315 54.944 9.25642 54.316 9.16536 53.685C9.07332 53.055 8.99694 52.422 8.93623 51.787C8.87455 51.153 8.82853 50.517 8.79817 49.88C8.76782 49.243 8.75215 48.605 8.75215 47.968C8.75215 47.33 8.76782 46.693 8.79817 46.056C8.82853 45.419 8.87455 44.783 8.93623 44.148C8.99694 43.514 9.07332 42.881 9.16536 42.25C9.25642 41.619 9.36315 40.991 9.48555 40.366C9.60696 39.74 9.74405 39.118 9.89582 38.499C10.0476 37.881 10.214 37.266 10.3952 36.656C10.5763 36.046 10.7722 35.44 10.9817 34.84C11.1922 34.239 11.4174 33.645 11.6564 33.055C11.8953 32.466 12.1479 31.883 12.4152 31.307C12.6815 30.73 12.9626 30.161 13.2563 29.598C13.551 29.036 13.8585 28.481 14.1797 27.934C14.5008 27.387 14.8347 26.848 15.1814 26.318C15.528 25.788 15.8873 25.266 16.2594 24.754C16.6315 24.242 17.0153 23.739 17.4109 23.246C17.8075 22.753 18.2148 22.27 18.6339 21.798C19.054 21.325 19.4838 20.863 19.9254 20.412C20.367 19.961 20.8194 19.522 21.2816 19.093C21.7447 18.665 22.2167 18.248 22.6994 17.844C23.1821 17.439 23.6737 17.047 24.176 16.667C24.6773 16.287 25.1875 15.92 25.7064 15.565C26.2254 15.211 26.7532 14.869 27.2888 14.541C27.8244 14.214 28.3668 13.899 28.9181 13.598C29.4684 13.298 30.0255 13.011 30.5905 12.738C31.1545 12.465 31.7254 12.207 32.3021 11.963C32.8788 11.718 33.4614 11.489 34.0499 11.274C34.6374 11.059 35.2298 10.859 35.8271 10.673C36.4254 10.488 37.0266 10.318 37.6327 10.163C38.2378 10.007 38.8468 9.86796 39.4598 9.74296C40.0718 9.61795 40.6867 9.50896 41.3046 9.41496C41.9224 9.32195 42.5422 9.24296 43.163 9.18096C43.7848 9.11796 44.4075 9.07096 45.0313 9.03896C45.655 9.00796 46.2787 8.99196 46.9034 8.99196V6.30396C46.2356 6.30396 45.5678 6.32096 44.901 6.35396C44.2342 6.38696 43.5684 6.43796 42.9045 6.50396C42.2397 6.57096 41.5777 6.65496 40.9168 6.75496C40.2568 6.85496 39.5988 6.97096 38.9438 7.10396C38.2897 7.23696 37.6376 7.38696 36.9903 7.55196C36.3431 7.71796 35.6998 7.89996 35.0604 8.09796C34.422 8.29596 33.7875 8.50996 33.1589 8.73896C32.5302 8.96896 31.9075 9.21396 31.2906 9.47496C30.6737 9.73596 30.0637 10.012 29.4606 10.304C28.8574 10.596 28.2611 10.902 27.6716 11.223C27.0831 11.545 26.5025 11.881 25.9297 12.231C25.3569 12.582 24.7929 12.947 24.2377 13.325C23.6825 13.704 23.1371 14.097 22.6005 14.503C22.0649 14.909 21.5381 15.329 21.0221 15.761C20.5061 16.194 20.0008 16.639 19.5063 17.097C19.0119 17.555 18.5282 18.025 18.0562 18.507C17.5842 18.989 17.124 19.483 16.6756 19.988C16.2271 20.493 15.7904 21.009 15.3674 21.536C14.9434 22.064 14.5332 22.601 14.1356 23.149C13.7381 23.696 13.3533 24.254 12.9822 24.82C12.611 25.387 12.2546 25.963 11.9109 26.548C11.5682 27.133 11.2392 27.726 10.9239 28.328C10.6096 28.929 10.309 29.538 10.0241 30.154C9.73817 30.771 9.46792 31.394 9.21236 32.024C8.9568 32.654 8.7169 33.29 8.49169 33.932C8.26648 34.574 8.05792 35.221 7.86405 35.873C7.67017 36.526 7.49196 37.183 7.32942 37.844C7.16786 38.506 7.02098 39.171 6.89076 39.84C6.76053 40.508 6.64694 41.18 6.54903 41.854C6.45013 42.529 6.36886 43.205 6.30326 43.884C6.23765 44.563 6.18869 45.242 6.15638 45.923C6.12309 46.604 6.10742 47.286 6.10742 47.968C6.10742 48.65 6.12309 49.331 6.15638 50.012C6.18869 50.693 6.23765 51.373 6.30326 52.052C6.36886 52.73 6.45013 53.407 6.54903 54.081C6.64694 54.756 6.76053 55.427 6.89076 56.096C7.02098 56.765 7.16786 57.43 7.32942 58.091C7.49196 58.753 7.67017 59.41 7.86405 60.062C8.05792 60.715 8.26648 61.362 8.49169 62.004C8.7169 62.646 8.9568 63.282 9.21236 63.912C9.46792 64.542 9.73817 65.165 10.0241 65.781C10.309 66.398 10.6096 67.007 10.9239 67.608C11.2392 68.209 11.5682 68.802 11.9109 69.387C12.2546 69.972 12.611 70.548 12.9822 71.115C13.3533 71.682 13.7381 72.239 14.1356 72.787C14.5332 73.335 14.9434 73.872 15.3674 74.399C15.7904 74.926 16.2271 75.442 16.6756 75.948C17.124 76.453 17.5842 76.947 18.0562 77.429C18.5282 77.911 19.0119 78.381 19.5063 78.839C20.0008 79.297 20.5061 79.742 21.0221 80.174C21.5381 80.607 22.0649 81.026 22.6005 81.433C23.1371 81.839 23.6825 82.231 24.2377 82.61C24.7929 82.989 25.3569 83.354 25.9297 83.704C26.5025 84.055 27.0831 84.391 27.6716 84.712C28.2611 85.034 28.8574 85.34 29.4606 85.632C30.0637 85.923 30.6737 86.199 31.2906 86.46C31.9075 86.721 32.5302 86.967 33.1589 87.196C33.7875 87.426 34.422 87.64 35.0604 87.838C35.6998 88.036 36.3431 88.217 36.9903 88.383C37.6376 88.549 38.2897 88.698 38.9438 88.831C39.5988 88.964 40.2568 89.081 40.9168 89.181C41.5777 89.281 42.2397 89.364 42.9045 89.431C43.5684 89.498 44.2342 89.548 44.901 89.582C45.5678 89.615 46.2356 89.632 46.9034 89.632Z" fill="black"/>
</g>
<path d="M49.622 89.5411C50.5327 89.4781 51.4472 89.3861 52.3402 89.2641L51.9926 86.6001C51.1525 86.7141 50.3035 86.8001 49.4468 86.8581L49.622 89.5411Z" fill="black"/>
<path d="M84.7302 53.167C84.6 54.162 84.4325 55.151 84.2279 56.133C84.0223 57.115 83.7804 58.087 83.5014 59.05C83.2223 60.013 82.908 60.964 82.5574 61.902C82.2059 62.84 81.8201 63.763 81.4001 64.671C80.979 65.578 80.5247 66.468 80.0361 67.34C79.5485 68.211 79.0275 69.062 78.4753 69.893C77.9221 70.724 77.3395 71.531 76.7255 72.316C76.1116 73.1 75.4683 73.859 74.7975 74.593C74.1258 75.327 73.4277 76.033 72.7031 76.711C71.9785 77.39 71.2285 78.039 70.4549 78.658C69.6804 79.277 68.8844 79.865 68.0658 80.421C67.2472 80.978 66.409 81.501 65.5503 81.991C64.6925 82.481 63.8172 82.937 62.9242 83.358C62.0312 83.779 61.1245 84.164 60.2021 84.513C59.2797 84.862 58.3466 85.174 57.4007 85.45C56.4548 85.725 55.5011 85.963 54.5366 86.163L55.0605 88.798C56.0906 88.585 57.1109 88.33 58.1214 88.036C59.1328 87.741 60.1306 87.407 61.1166 87.034C62.1017 86.661 63.072 86.249 64.0267 85.799C64.9804 85.349 65.9165 84.862 66.834 84.338C67.7515 83.814 68.6484 83.254 69.5228 82.659C70.3981 82.065 71.25 81.436 72.0774 80.774C72.9048 80.112 73.7058 79.418 74.4813 78.693C75.2558 77.967 76.0019 77.212 76.7196 76.428C77.4374 75.643 78.1247 74.832 78.7808 73.993C79.4368 73.155 80.0606 72.291 80.652 71.403C81.2424 70.515 81.7986 69.605 82.3205 68.673C82.8424 67.741 83.328 66.79 83.7785 65.82C84.2279 64.85 84.6401 63.863 85.0161 62.86C85.3911 61.857 85.727 60.841 86.0256 59.811C86.3233 58.782 86.5818 57.742 86.8011 56.692C87.0205 55.642 87.2006 54.585 87.3397 53.521L84.7302 53.167Z" fill="black"/>
<path d="M52.167 46.624H54.799V49.312H52.167V46.624Z" fill="black"/>
<path d="M58.7471 33.1841H61.3791V35.8721H58.7471V33.1841Z" fill="black"/>
<path d="M60.063 58.72H62.695V61.408H60.063V58.72Z" fill="black"/>
<path d="M85.0669 46.624H87.6989V49.312H85.0669V46.624Z" fill="black"/>
</svg>
