<svg width="96" height="96" viewBox="0 0 96 96" fill="none" xmlns="http://www.w3.org/2000/svg">
<path d="M55.6181 41.176C54.4951 40.416 53.2841 39.838 51.9861 39.443C50.6881 39.047 49.3601 38.852 48.0031 38.856H47.9271C46.5591 38.853 45.2211 39.053 43.9151 39.458C42.6081 39.863 41.3921 40.453 40.2661 41.23L41.8851 43.544C42.7761 42.933 43.7381 42.469 44.7711 42.151C45.8041 41.833 46.8611 41.676 47.9421 41.681C49.0281 41.659 50.0911 41.805 51.1301 42.118C52.1701 42.431 53.1371 42.896 54.0301 43.513L55.6181 41.176Z" fill="black"/>
<path d="M58.7221 36.3461C57.9281 35.8321 57.1001 35.3781 56.2401 34.9841C55.3801 34.5911 54.4951 34.2611 53.5871 33.9951C52.6791 33.7291 51.7561 33.5301 50.8191 33.3981C49.8821 33.2661 48.9401 33.2021 47.9931 33.2071H47.9161C46.9671 33.2061 46.0231 33.2731 45.0841 33.4081C44.1451 33.5431 43.2201 33.7451 42.3101 34.0131C41.4001 34.2811 40.5141 34.6131 39.6511 35.0081C38.7891 35.4041 37.9601 35.8591 37.1631 36.3741L38.7081 38.7401C39.0501 38.5211 39.3991 38.3151 39.7561 38.1201C40.1131 37.9261 40.4771 37.7451 40.8471 37.5761C41.2161 37.4081 41.5921 37.2531 41.9731 37.1111C42.3541 36.9691 42.7391 36.8411 43.1291 36.7261C43.5191 36.6121 43.9131 36.5111 44.3101 36.4251C44.7071 36.3381 45.1071 36.2661 45.5091 36.2081C45.9111 36.1501 46.3151 36.1061 46.7211 36.0771C47.1261 36.0471 47.5321 36.0321 47.9391 36.0321C48.3451 36.0311 48.7511 36.0451 49.1571 36.0731C49.5621 36.1011 49.9661 36.1441 50.3691 36.2011C50.7711 36.2581 51.1711 36.3291 51.5691 36.4141C51.9661 36.4991 52.3601 36.5991 52.7501 36.7121C53.1411 36.8251 53.5271 36.9521 53.9081 37.0931C54.2891 37.2341 54.6651 37.3881 55.0361 37.5551C55.4061 37.7221 55.7701 37.9031 56.1271 38.0961C56.4851 38.2891 56.8351 38.4951 57.1781 38.7131L58.7221 36.3461Z" fill="black"/>
<path d="M52.542 45.7459C52.193 45.5449 51.832 45.3689 51.46 45.2159C51.088 45.0629 50.707 44.9359 50.318 44.8329C49.929 44.7299 49.534 44.6529 49.135 44.6019C48.736 44.5509 48.335 44.5259 47.933 44.5279C47.53 44.5289 47.129 44.5569 46.731 44.6109C46.332 44.6649 45.938 44.7449 45.55 44.8509C45.161 44.9559 44.782 45.0869 44.411 45.2429C44.039 45.3979 43.68 45.5769 43.332 45.7799L44.788 48.2019C45.027 48.0629 45.274 47.9409 45.529 47.8349C45.783 47.7279 46.044 47.6389 46.311 47.5669C46.577 47.4949 46.847 47.4399 47.121 47.4029C47.394 47.3659 47.669 47.3469 47.946 47.3459C48.222 47.3459 48.497 47.3629 48.771 47.3979C49.044 47.4329 49.315 47.4859 49.582 47.5559C49.849 47.6269 50.11 47.7139 50.366 47.8189C50.621 47.9229 50.869 48.0439 51.108 48.1809L52.542 45.7459Z" fill="black"/>
<path d="M47.9419 50.155C48.0349 50.155 48.1269 50.164 48.2179 50.182C48.3089 50.2 48.3969 50.227 48.4829 50.262C48.5689 50.298 48.6509 50.341 48.7279 50.393C48.8049 50.444 48.8759 50.503 48.9419 50.569C49.0079 50.634 49.0659 50.705 49.1179 50.783C49.1699 50.86 49.2129 50.941 49.2489 51.027C49.2839 51.112 49.3109 51.201 49.3289 51.292C49.3469 51.383 49.3559 51.475 49.3559 51.567C49.3559 51.66 49.3469 51.752 49.3289 51.843C49.3109 51.934 49.2839 52.022 49.2489 52.108C49.2129 52.193 49.1699 52.275 49.1179 52.352C49.0659 52.429 49.0079 52.5 48.9419 52.566C48.8759 52.632 48.8049 52.69 48.7279 52.742C48.6509 52.793 48.5689 52.837 48.4829 52.872C48.3969 52.908 48.3089 52.934 48.2179 52.952C48.1269 52.971 48.0349 52.98 47.9419 52.98C47.8489 52.98 47.7569 52.971 47.6659 52.952C47.5749 52.934 47.4859 52.908 47.4009 52.872C47.3149 52.837 47.2329 52.793 47.1559 52.742C47.0789 52.69 47.0069 52.632 46.9419 52.566C46.8759 52.5 46.8169 52.429 46.7659 52.352C46.7139 52.275 46.6709 52.193 46.6349 52.108C46.5999 52.022 46.5729 51.934 46.5549 51.843C46.5359 51.752 46.5269 51.66 46.5269 51.567C46.5269 51.475 46.5359 51.383 46.5549 51.292C46.5729 51.201 46.5999 51.112 46.6349 51.027C46.6709 50.941 46.7139 50.86 46.7659 50.783C46.8169 50.705 46.8759 50.634 46.9419 50.569C47.0069 50.503 47.0789 50.444 47.1559 50.393C47.2329 50.341 47.3149 50.298 47.4009 50.262C47.4859 50.227 47.5749 50.2 47.6659 50.182C47.7569 50.164 47.8489 50.155 47.9419 50.155Z" fill="black"/>
<mask id="mask0_1712_12852" style="mask-type:luminance" maskUnits="userSpaceOnUse" x="27" y="59" width="41" height="30">
<path d="M27.9038 59.9041H67.8398V88.2881H27.9038V59.9041Z" fill="white"/>
</mask>
<g mask="url(#mask0_1712_12852)">
<path d="M64.8639 88.288C65.0489 88.288 65.2329 88.27 65.4149 88.233C65.5969 88.197 65.7739 88.143 65.9459 88.072C66.1169 88.001 66.2799 87.914 66.4349 87.811C66.5889 87.708 66.7319 87.591 66.8629 87.46C66.9939 87.329 67.1119 87.186 67.2149 87.032C67.3179 86.878 67.4049 86.715 67.4759 86.544C67.5479 86.373 67.6009 86.196 67.6379 86.014C67.6739 85.832 67.6919 85.649 67.6929 85.463V62.866C67.6929 62.681 67.6739 62.497 67.6379 62.315C67.6009 62.133 67.5479 61.957 67.4759 61.786C67.4049 61.614 67.3179 61.452 67.2149 61.298C67.1119 61.143 66.9939 61.001 66.8629 60.87C66.7319 60.739 66.5889 60.622 66.4349 60.518C66.2799 60.415 66.1169 60.328 65.9459 60.257C65.7739 60.186 65.5969 60.133 65.4149 60.096C65.2329 60.06 65.0489 60.042 64.8639 60.041H30.9149C30.7299 60.042 30.5459 60.06 30.3639 60.096C30.1819 60.133 30.0049 60.186 29.8329 60.257C29.6619 60.328 29.4989 60.415 29.3449 60.518C29.1899 60.622 29.0469 60.739 28.9159 60.87C28.7849 61.001 28.6679 61.143 28.5639 61.298C28.4609 61.452 28.3739 61.614 28.3029 61.786C28.2319 61.957 28.1779 62.133 28.1409 62.315C28.1049 62.497 28.0869 62.681 28.0859 62.866V85.463C28.0869 85.649 28.1049 85.832 28.1409 86.014C28.1779 86.196 28.2319 86.373 28.3029 86.544C28.3739 86.715 28.4609 86.878 28.5639 87.032C28.6679 87.186 28.7849 87.329 28.9159 87.46C29.0469 87.591 29.1899 87.708 29.3449 87.811C29.4989 87.914 29.6619 88.001 29.8329 88.072C30.0049 88.143 30.1819 88.197 30.3639 88.233C30.5459 88.27 30.7299 88.288 30.9149 88.288H64.8639ZM30.9149 62.866H64.8639L64.8669 85.463H30.9149V62.866Z" fill="black"/>
</g>
<path d="M60.6201 65.6909H35.1591C35.0661 65.6909 34.9741 65.6999 34.8831 65.7179C34.7921 65.7359 34.7031 65.7619 34.6181 65.7979C34.5321 65.8329 34.4501 65.8769 34.3731 65.9279C34.2961 65.9799 34.2241 66.0379 34.1591 66.1039C34.0931 66.1699 34.0341 66.2409 33.9831 66.3179C33.9311 66.3949 33.8871 66.4769 33.8521 66.5619C33.8161 66.6479 33.7901 66.7359 33.7721 66.8269C33.7531 66.9179 33.7441 67.0099 33.7441 67.1029V81.2259C33.7441 81.3189 33.7531 81.4109 33.7721 81.5019C33.7901 81.5929 33.8161 81.6809 33.8521 81.7669C33.8871 81.8529 33.9311 81.9339 33.9831 82.0109C34.0341 82.0879 34.0931 82.1599 34.1591 82.2249C34.2241 82.2909 34.2961 82.3489 34.3731 82.4009C34.4501 82.4519 34.5321 82.4959 34.6181 82.5309C34.7031 82.5669 34.7921 82.5939 34.8831 82.6119C34.9741 82.6299 35.0661 82.6389 35.1591 82.6389H49.3041V79.8139H36.5731V68.5149H59.2061V78.4019H62.0351V67.1029C62.0351 67.0099 62.0261 66.9179 62.0081 66.8269C61.9901 66.7359 61.9631 66.6479 61.9271 66.5619C61.8921 66.4769 61.8481 66.3949 61.7971 66.3179C61.7451 66.2409 61.6861 66.1699 61.6211 66.1039C61.5551 66.0379 61.4831 65.9799 61.4061 65.9279C61.3291 65.8769 61.2471 65.8329 61.1621 65.7979C61.0761 65.7619 60.9871 65.7359 60.8961 65.7179C60.8051 65.6999 60.7131 65.6909 60.6201 65.6909Z" fill="black"/>
<path d="M59.2061 79.814H62.0351V82.639H59.2061V79.814Z" fill="black"/>
<path d="M54.9619 79.814H57.7909V82.639H54.9619V79.814Z" fill="black"/>
<path d="M50.7192 79.814H53.5482V82.639H50.7192V79.814Z" fill="black"/>
<path d="M68.7202 55.097L71.1682 56.512C72.2202 54.69 73.0472 52.771 73.6482 50.756C74.2482 48.74 74.6072 46.683 74.7242 44.583L71.9002 44.428C71.8022 46.307 71.4842 48.148 70.9462 49.951C70.4092 51.755 69.6672 53.47 68.7202 55.097Z" fill="black"/>
<path d="M67.9291 29.8181L70.2861 28.2541C69.9231 27.7091 69.5421 27.1781 69.1411 26.6611C68.7391 26.1451 68.3201 25.6431 67.8821 25.1571C67.4441 24.6701 66.9891 24.2011 66.5171 23.7481C66.0451 23.2941 65.5571 22.8591 65.0531 22.4421C64.5491 22.0241 64.0301 21.6261 63.4971 21.2461C62.9641 20.8661 62.4171 20.5071 61.8581 20.1671C61.2981 19.8271 60.7271 19.5081 60.1441 19.2101C59.5611 18.9121 58.9681 18.6351 58.3651 18.3811C57.7621 18.1261 57.1501 17.8931 56.5301 17.6831C55.9101 17.4731 55.2831 17.2861 54.6491 17.1211C54.0151 16.9571 53.3761 16.8161 52.7321 16.6981C52.0881 16.5801 51.4401 16.4861 50.7891 16.4151C50.1381 16.3451 49.4861 16.2981 48.8311 16.2751C48.1771 16.2521 47.5221 16.2531 46.8681 16.2781C46.2131 16.3031 45.5611 16.3521 44.9101 16.4241C44.2591 16.4971 43.6121 16.5931 42.9681 16.7121C42.3241 16.8321 41.6851 16.9751 41.0521 17.1421C40.4191 17.3081 39.7921 17.4971 39.1731 17.7091C38.5531 17.9211 37.9421 18.1551 37.3401 18.4121C36.7371 18.6691 36.1451 18.9471 35.5631 19.2471C34.9811 19.5461 34.4111 19.8671 33.8521 20.2091C33.2941 20.5501 32.7491 20.9111 32.2171 21.2931C31.6841 21.6741 31.1671 22.0741 30.6641 22.4931C30.1611 22.9121 29.6751 23.3491 29.2041 23.8031C28.7331 24.2581 28.2791 24.7291 27.8431 25.2161C27.4071 25.7041 26.9891 26.2071 26.5891 26.7251C26.1901 27.2431 25.8101 27.7751 25.4491 28.3211C25.0881 28.8671 24.7481 29.4251 24.4291 29.9961C24.1091 30.5661 23.8101 31.1481 23.5331 31.7401C23.2561 32.3331 23.0011 32.9341 22.7681 33.5461C22.5351 34.1571 22.3241 34.7751 22.1361 35.4021C21.9491 36.0281 21.7841 36.6611 21.6421 37.2991L24.4051 37.9061C24.5321 37.3351 24.6791 36.7691 24.8471 36.2081C25.0151 35.6481 25.2041 35.0941 25.4131 34.5481C25.6211 34.0011 25.8501 33.4631 26.0981 32.9331C26.3461 32.4021 26.6131 31.8821 26.8991 31.3721C27.1851 30.8611 27.4891 30.3621 27.8121 29.8731C28.1351 29.3851 28.4751 28.9091 28.8321 28.4451C29.1901 27.9821 29.5641 27.5321 29.9541 27.0961C30.3451 26.6601 30.7511 26.2381 31.1721 25.8321C31.5931 25.4251 32.0291 25.0341 32.4791 24.6591C32.9291 24.2851 33.3921 23.9271 33.8681 23.5861C34.3441 23.2451 34.8321 22.9211 35.3321 22.6161C35.8321 22.3101 36.3421 22.0241 36.8631 21.7551C37.3831 21.4871 37.9131 21.2381 38.4521 21.0091C38.9911 20.7791 39.5381 20.5701 40.0921 20.3801C40.6471 20.1901 41.2071 20.0211 41.7741 19.8731C42.3401 19.7241 42.9121 19.5961 43.4881 19.4891C44.0641 19.3821 44.6431 19.2961 45.2261 19.2311C45.8081 19.1661 46.3921 19.1231 46.9771 19.1011C47.5631 19.0791 48.1481 19.0781 48.7341 19.0981C49.3201 19.1191 49.9041 19.1611 50.4861 19.2241C51.0691 19.2871 51.6481 19.3711 52.2251 19.4771C52.8011 19.5821 53.3731 19.7091 53.9401 19.8561C54.5071 20.0031 55.0681 20.1711 55.6231 20.3591C56.1781 20.5471 56.7251 20.7551 57.2641 20.9831C57.8041 21.2111 58.3351 21.4581 58.8561 21.7251C59.3781 21.9921 59.8891 22.2771 60.3891 22.5811C60.8901 22.8861 61.3791 23.2071 61.8561 23.5471C62.3331 23.8871 62.7971 24.2441 63.2481 24.6171C63.6991 24.9911 64.1351 25.3801 64.5581 25.7861C64.9801 26.1911 65.3871 26.6111 65.7791 27.0471C66.1711 27.4821 66.5461 27.9311 66.9051 28.3931C67.2631 28.8561 67.6051 29.3311 67.9291 29.8181Z" fill="black"/>
<path d="M27.0592 55.0971C26.0762 53.4001 25.3142 51.6101 24.7712 49.7261L22.0532 50.5041C22.6582 52.6111 23.5112 54.6141 24.6112 56.5121L27.0592 55.0971Z" fill="black"/>
<path d="M76.148 19.5911L73.977 21.4011C74.307 21.7971 74.629 22.2011 74.941 22.6121C75.253 23.0241 75.556 23.4421 75.849 23.8671C76.142 24.2921 76.426 24.7231 76.699 25.1611C76.973 25.5991 77.236 26.0431 77.489 26.4931C77.742 26.9431 77.985 27.3991 78.217 27.8601C78.449 28.3211 78.671 28.7871 78.882 29.2581C79.093 29.7291 79.293 30.2051 79.482 30.6851C79.671 31.1651 79.849 31.6501 80.016 32.1381C80.183 32.6271 80.339 33.1181 80.484 33.6141C80.628 34.1091 80.761 34.6081 80.883 35.1101C81.005 35.6111 81.115 36.1151 81.214 36.6221C81.312 37.1281 81.399 37.6371 81.475 38.1481C81.55 38.6581 81.614 39.1701 81.666 39.6841C81.718 40.1971 81.758 40.7121 81.786 41.2271C81.815 41.7421 81.832 42.2581 81.836 42.7741C81.841 43.2901 81.834 43.8061 81.816 44.3221C81.797 44.8371 81.766 45.3521 81.724 45.8671C81.682 46.3811 81.628 46.8941 81.562 47.4061C81.496 47.9181 81.419 48.4281 81.329 48.9361C81.24 49.4451 81.14 49.9511 81.027 50.4551C80.915 50.9581 80.791 51.4591 80.656 51.9571C80.521 52.4561 80.374 52.9501 80.217 53.4421C80.059 53.9331 79.89 54.4211 79.71 54.9051C79.53 55.3881 79.338 55.8681 79.136 56.3431C78.934 56.8181 78.722 57.2881 78.498 57.7531C78.274 58.2191 78.04 58.6781 77.796 59.1331C77.551 59.5881 77.296 60.0371 77.031 60.4801C76.766 60.9231 76.491 61.3591 76.206 61.7901C75.921 62.2201 75.626 62.6441 75.321 63.0611C75.017 63.4781 74.703 63.8881 74.38 64.2911C74.056 64.6931 73.724 65.0881 73.383 65.4761C73.041 65.8641 72.691 66.2431 72.333 66.6151L74.369 68.5761C74.757 68.1731 75.137 67.7621 75.507 67.3421C75.876 66.9231 76.236 66.4941 76.587 66.0581C76.937 65.6221 77.277 65.1781 77.607 64.7261C77.937 64.2741 78.256 63.8151 78.565 63.3491C78.874 62.8821 79.172 62.4091 79.459 61.9291C79.747 61.4491 80.023 60.9631 80.288 60.4711C80.553 59.9781 80.806 59.4801 81.049 58.9751C81.291 58.4711 81.521 57.9621 81.74 57.4471C81.959 56.9331 82.166 56.4131 82.361 55.8891C82.557 55.3651 82.74 54.8371 82.911 54.3041C83.082 53.7721 83.24 53.2361 83.387 52.6961C83.533 52.1571 83.667 51.6141 83.789 51.0681C83.911 50.5221 84.02 49.9741 84.116 49.4231C84.213 48.8721 84.297 48.3201 84.368 47.7651C84.439 47.2111 84.498 46.6551 84.544 46.0971C84.589 45.5401 84.622 44.9821 84.643 44.4231C84.663 43.8651 84.671 43.3061 84.665 42.7471C84.66 42.1871 84.642 41.6291 84.611 41.0701C84.58 40.5121 84.537 39.9551 84.48 39.3991C84.424 38.8421 84.355 38.2881 84.273 37.7341C84.192 37.1811 84.097 36.6301 83.99 36.0811C83.883 35.5331 83.764 34.9861 83.632 34.4431C83.5 33.9001 83.356 33.3591 83.199 32.8231C83.043 32.2861 82.874 31.7531 82.693 31.2241C82.512 30.6951 82.319 30.1701 82.114 29.6501C81.909 29.1291 81.692 28.6141 81.463 28.1031C81.235 27.5931 80.995 27.0881 80.743 26.5891C80.491 26.0891 80.228 25.5961 79.954 25.1081C79.68 24.6211 79.394 24.1401 79.098 23.6651C78.802 23.1911 78.495 22.7231 78.177 22.2631C77.86 21.8021 77.532 21.3491 77.193 20.9041C76.855 20.4581 76.506 20.0211 76.148 19.5911Z" fill="black"/>
<path d="M64.1842 13.3491L65.5432 10.8711C64.3152 10.2021 63.0532 9.60505 61.7572 9.07905C60.4612 8.55305 59.1392 8.10205 57.7912 7.72705C56.4432 7.35105 55.0792 7.05305 53.6972 6.83305C52.3152 6.61305 50.9262 6.47105 49.5282 6.40905C48.1302 6.34705 46.7332 6.36405 45.3382 6.46005C43.9422 6.55705 42.5562 6.73205 41.1802 6.98605C39.8042 7.24005 38.4482 7.57205 37.1102 7.98005C35.7722 8.38805 34.4612 8.87105 33.1782 9.42905L34.3112 12.0161C35.4952 11.5021 36.7052 11.0571 37.9402 10.6801C39.1752 10.3031 40.4272 9.99805 41.6972 9.76305C42.9672 9.52905 44.2462 9.36705 45.5342 9.27805C46.8232 9.18905 48.1122 9.17305 49.4022 9.23105C50.6922 9.28805 51.9752 9.41905 53.2502 9.62205C54.5252 9.82605 55.7852 10.1001 57.0282 10.4471C58.2722 10.7931 59.4932 11.2091 60.6892 11.6941C61.8852 12.1801 63.0502 12.7311 64.1842 13.3491Z" fill="black"/>
<path d="M22.999 66.1421C22.652 65.7681 22.314 65.3871 21.984 64.9991C21.654 64.6101 21.334 64.2141 21.022 63.8111C20.71 63.4081 20.408 62.9981 20.114 62.5811C19.821 62.1651 19.537 61.7421 19.263 61.3121C18.989 60.8831 18.724 60.4471 18.47 60.0061C18.215 59.5641 17.971 59.1181 17.737 58.6651C17.502 58.2131 17.278 57.7561 17.064 57.2931C16.851 56.8311 16.648 56.3641 16.455 55.8921C16.262 55.4201 16.08 54.9451 15.909 54.4651C15.738 53.9851 15.578 53.5021 15.429 53.0151C15.279 52.5281 15.141 52.0381 15.014 51.5441C14.887 51.0511 14.771 50.5551 14.666 50.0571C14.561 49.5591 14.467 49.0581 14.385 48.5551C14.303 48.0531 14.232 47.5491 14.173 47.0431C14.113 46.5371 14.065 46.0301 14.029 45.5221C13.992 45.0141 13.967 44.5051 13.953 43.9961C13.94 43.4871 13.938 42.9781 13.947 42.4691C13.956 41.9601 13.977 41.4511 14.01 40.9431C14.042 40.4341 14.086 39.9271 14.141 39.4211C14.196 38.9141 14.263 38.4101 14.341 37.9061C14.419 37.4031 14.508 36.9021 14.609 36.4021C14.71 35.9031 14.821 35.4061 14.945 34.9121C15.068 34.4181 15.202 33.9271 15.347 33.4381C15.492 32.9501 15.649 32.4651 15.816 31.9841C15.983 31.5031 16.161 31.0261 16.35 30.5531C16.538 30.0801 16.737 29.6111 16.947 29.1471C17.157 28.6821 17.377 28.2231 17.608 27.7691C17.839 27.3151 18.079 26.8661 18.33 26.4221C18.581 25.9791 18.842 25.5411 19.112 25.1101C19.383 24.6781 19.663 24.2521 19.953 23.8331C20.243 23.4141 20.542 23.0021 20.85 22.5961C21.159 22.1901 21.476 21.7921 21.803 21.4011L19.631 19.5911C19.277 20.0151 18.933 20.4471 18.599 20.8861C18.265 21.3261 17.941 21.7721 17.627 22.2261C17.313 22.6811 17.009 23.1411 16.716 23.6091C16.423 24.0771 16.14 24.5511 15.869 25.0311C15.597 25.5121 15.336 25.9981 15.086 26.4901C14.836 26.9821 14.598 27.4801 14.37 27.9831C14.143 28.4861 13.927 28.9941 13.722 29.5061C13.518 30.0191 13.325 30.5361 13.144 31.0571C12.963 31.5781 12.794 32.1041 12.636 32.6321C12.479 33.1611 12.333 33.6941 12.2 34.2291C12.066 34.7651 11.945 35.3031 11.836 35.8441C11.727 36.3851 11.63 36.9281 11.546 37.4731C11.461 38.0181 11.389 38.5651 11.329 39.1141C11.269 39.6621 11.222 40.2121 11.186 40.7631C11.151 41.3131 11.129 41.8641 11.119 42.4161C11.108 42.9681 11.111 43.5191 11.125 44.0711C11.14 44.6231 11.167 45.1741 11.207 45.7241C11.246 46.2741 11.298 46.8241 11.363 47.3721C11.427 47.9201 11.504 48.4661 11.593 49.0111C11.682 49.5551 11.783 50.0971 11.897 50.6371C12.01 51.1771 12.136 51.7151 12.274 52.2491C12.411 52.7831 12.561 53.3141 12.723 53.8421C12.885 54.3701 13.058 54.8931 13.244 55.4131C13.429 55.9331 13.626 56.4481 13.835 56.9591C14.043 57.4701 14.264 57.9761 14.495 58.4771C14.727 58.9781 14.969 59.4741 15.223 59.9641C15.477 60.4541 15.742 60.9381 16.018 61.4161C16.293 61.8951 16.58 62.3661 16.877 62.8321C17.174 63.2971 17.481 63.7551 17.799 64.2071C18.117 64.6581 18.444 65.1021 18.782 65.5391C19.12 65.9761 19.468 66.4051 19.825 66.8261C20.182 67.2471 20.548 67.6601 20.924 68.0641L22.999 66.1421Z" fill="black"/>
<path d="M77.9449 36.6041C77.9449 36.4191 77.9359 36.2341 77.9179 36.0501C77.8999 35.8661 77.8729 35.6831 77.8359 35.5021C77.7999 35.3201 77.7549 35.1411 77.7019 34.9641C77.6479 34.7871 77.5849 34.6131 77.5139 34.4421C77.4439 34.2711 77.3639 34.1041 77.2769 33.9411C77.1899 33.7781 77.0949 33.6191 76.9919 33.4651C76.8889 33.3111 76.7779 33.1631 76.6609 33.0201C76.5429 32.8771 76.4189 32.7401 76.2879 32.6091C76.1569 32.4781 76.0199 32.3541 75.8769 32.2371C75.7329 32.1201 75.5849 32.0091 75.4309 31.9071C75.2769 31.8041 75.1179 31.7091 74.9539 31.6221C74.7909 31.5341 74.6239 31.4551 74.4519 31.3851C74.2809 31.3141 74.1069 31.2521 73.9299 31.1981C73.7519 31.1441 73.5729 31.0991 73.3909 31.0631C73.2089 31.0271 73.0259 31.0001 72.8419 30.9821C72.6569 30.9641 72.4719 30.9551 72.2869 30.9551C72.1019 30.9551 71.9169 30.9641 71.7329 30.9821C71.5479 31.0001 71.3649 31.0271 71.1829 31.0631C71.0019 31.0991 70.8219 31.1441 70.6449 31.1981C70.4669 31.2521 70.2929 31.3141 70.1219 31.3851C69.9509 31.4551 69.7829 31.5341 69.6199 31.6221C69.4569 31.7091 69.2979 31.8041 69.1439 31.9071C68.9899 32.0091 68.8409 32.1201 68.6979 32.2371C68.5539 32.3541 68.4169 32.4781 68.2859 32.6091C68.1549 32.7401 68.0309 32.8771 67.9129 33.0201C67.7959 33.1631 67.6859 33.3111 67.5829 33.4651C67.4799 33.6191 67.3849 33.7781 67.2969 33.9411C67.2099 34.1041 67.1309 34.2711 67.0599 34.4421C66.9889 34.6131 66.9269 34.7871 66.8729 34.9641C66.8189 35.1411 66.7739 35.3201 66.7379 35.5021C66.7019 35.6831 66.6749 35.8661 66.6559 36.0501C66.6379 36.2341 66.6289 36.4191 66.6289 36.6041C66.6289 36.7891 66.6379 36.9741 66.6559 37.1581C66.6749 37.3421 66.7019 37.5251 66.7379 37.7061C66.7739 37.8881 66.8189 38.0671 66.8729 38.2441C66.9269 38.4211 66.9889 38.5951 67.0599 38.7661C67.1309 38.9371 67.2099 39.1041 67.2969 39.2671C67.3849 39.4301 67.4799 39.5891 67.5829 39.7431C67.6859 39.8961 67.7959 40.0451 67.9129 40.1881C68.0309 40.3311 68.1549 40.4681 68.2859 40.5991C68.4169 40.7291 68.5539 40.8541 68.6979 40.9711C68.8409 41.0881 68.9899 41.1981 69.1439 41.3011C69.2979 41.4041 69.4569 41.4991 69.6199 41.5861C69.7829 41.6731 69.9509 41.7521 70.1219 41.8231C70.2929 41.8941 70.4669 41.9561 70.6449 42.0101C70.8219 42.0641 71.0019 42.1091 71.1829 42.1451C71.3649 42.1811 71.5479 42.2081 71.7329 42.2261C71.9169 42.2441 72.1019 42.2531 72.2869 42.2531C72.4719 42.2531 72.6569 42.2441 72.8419 42.2261C73.0259 42.2071 73.2089 42.1801 73.3909 42.1441C73.5719 42.1081 73.7519 42.0631 73.9289 42.0091C74.1059 41.9551 74.2799 41.8931 74.4519 41.8221C74.6229 41.7511 74.7899 41.6721 74.9529 41.5851C75.1169 41.4971 75.2749 41.4021 75.4289 41.2991C75.5829 41.1971 75.7319 41.0871 75.8749 40.9691C76.0179 40.8521 76.1549 40.7281 76.2859 40.5971C76.4169 40.4661 76.5419 40.3291 76.6589 40.1861C76.7769 40.0431 76.8869 39.8951 76.9899 39.7411C77.0929 39.5871 77.1879 39.4291 77.2749 39.2661C77.3629 39.1031 77.4419 38.9361 77.5129 38.7651C77.5839 38.5941 77.6459 38.4201 77.6999 38.2431C77.7539 38.0661 77.7989 37.8871 77.8359 37.7061C77.8719 37.5241 77.8989 37.3421 77.9169 37.1571C77.9359 36.9731 77.9449 36.7891 77.9449 36.6041ZM72.2869 39.4291C72.1009 39.4291 71.9169 39.4101 71.7349 39.3741C71.5529 39.3381 71.3759 39.2851 71.2049 39.2141C71.0329 39.1431 70.8699 39.0561 70.7149 38.9531C70.5609 38.8501 70.4179 38.7321 70.2869 38.6011C70.1549 38.4701 70.0379 38.3271 69.9349 38.1731C69.8319 38.0191 69.7449 37.8561 69.6729 37.6851C69.6019 37.5141 69.5489 37.3371 69.5119 37.1551C69.4759 36.9731 69.4579 36.7891 69.4579 36.6041C69.4579 36.4181 69.4759 36.2351 69.5119 36.0531C69.5489 35.8711 69.6019 35.6941 69.6729 35.5231C69.7449 35.3521 69.8319 35.1891 69.9349 35.0351C70.0379 34.8801 70.1549 34.7381 70.2869 34.6071C70.4179 34.4751 70.5609 34.3581 70.7149 34.2551C70.8699 34.1521 71.0329 34.0651 71.2049 33.9941C71.3759 33.9231 71.5529 33.8701 71.7349 33.8341C71.9169 33.7971 72.1009 33.7791 72.2869 33.7791C72.4729 33.7791 72.6569 33.7971 72.8389 33.8341C73.0209 33.8701 73.1979 33.9231 73.3699 33.9941C73.5409 34.0651 73.7039 34.1521 73.8589 34.2551C74.0129 34.3581 74.1559 34.4751 74.2879 34.6071C74.4189 34.7381 74.5359 34.8801 74.6389 35.0351C74.7429 35.1891 74.8299 35.3521 74.9009 35.5231C74.9719 35.6941 75.0259 35.8711 75.0619 36.0531C75.0979 36.2351 75.1159 36.4181 75.1159 36.6041C75.1159 36.7891 75.0979 36.9731 75.0609 37.1551C75.0249 37.3371 74.9709 37.5131 74.8999 37.6841C74.8289 37.8561 74.7409 38.0181 74.6379 38.1721C74.5349 38.3261 74.4179 38.4691 74.2859 38.6001C74.1549 38.7311 74.0119 38.8481 73.8579 38.9511C73.7039 39.0541 73.5409 39.1421 73.3689 39.2131C73.1979 39.2841 73.0209 39.3371 72.8389 39.3741C72.6569 39.4101 72.4729 39.4281 72.2869 39.4291Z" fill="black"/>
<path d="M32.3302 14.846C32.3302 14.661 32.3212 14.477 32.3032 14.293C32.2852 14.109 32.2572 13.926 32.2212 13.744C32.1852 13.563 32.1402 13.384 32.0862 13.207C32.0332 13.029 31.9702 12.855 31.8992 12.685C31.8282 12.514 31.7492 12.347 31.6622 12.183C31.5742 12.02 31.4792 11.862 31.3762 11.708C31.2732 11.554 31.1632 11.406 31.0462 11.263C30.9282 11.12 30.8042 10.983 30.6732 10.852C30.5422 10.721 30.4052 10.597 30.2612 10.479C30.1182 10.362 29.9692 10.252 29.8152 10.149C29.6612 10.046 29.5032 9.95102 29.3392 9.86402C29.1762 9.77702 29.0082 9.69802 28.8372 9.62702C28.6662 9.55602 28.4922 9.49402 28.3142 9.44002C28.1372 9.38702 27.9572 9.34202 27.7762 9.30602C27.5942 9.27002 27.4112 9.24202 27.2262 9.22402C27.0422 9.20602 26.8572 9.19702 26.6722 9.19702C26.4872 9.19702 26.3022 9.20602 26.1172 9.22402C25.9332 9.24202 25.7502 9.27002 25.5682 9.30602C25.3862 9.34202 25.2072 9.38702 25.0292 9.44002C24.8522 9.49402 24.6782 9.55602 24.5072 9.62702C24.3352 9.69802 24.1682 9.77702 24.0052 9.86402C23.8412 9.95102 23.6832 10.046 23.5282 10.149C23.3742 10.252 23.2262 10.362 23.0822 10.479C22.9392 10.597 22.8022 10.721 22.6712 10.852C22.5402 10.983 22.4162 11.12 22.2982 11.263C22.1812 11.406 22.0702 11.554 21.9672 11.708C21.8642 11.862 21.7692 12.02 21.6822 12.183C21.5952 12.347 21.5152 12.514 21.4452 12.685C21.3742 12.855 21.3112 13.029 21.2572 13.207C21.2042 13.384 21.1592 13.563 21.1232 13.744C21.0862 13.926 21.0592 14.109 21.0412 14.293C21.0232 14.477 21.0142 14.661 21.0142 14.846C21.0142 15.031 21.0232 15.216 21.0412 15.4C21.0592 15.584 21.0862 15.767 21.1232 15.949C21.1592 16.13 21.2042 16.309 21.2572 16.486C21.3112 16.663 21.3742 16.837 21.4452 17.008C21.5152 17.179 21.5952 17.346 21.6822 17.51C21.7692 17.673 21.8642 17.831 21.9672 17.985C22.0702 18.139 22.1812 18.287 22.2982 18.43C22.4162 18.573 22.5402 18.71 22.6712 18.841C22.8022 18.972 22.9392 19.096 23.0822 19.213C23.2262 19.331 23.3742 19.441 23.5282 19.544C23.6832 19.647 23.8412 19.742 24.0052 19.829C24.1682 19.916 24.3352 19.995 24.5072 20.066C24.6782 20.137 24.8522 20.199 25.0292 20.253C25.2072 20.306 25.3862 20.351 25.5682 20.387C25.7502 20.423 25.9332 20.45 26.1172 20.469C26.3022 20.487 26.4872 20.496 26.6722 20.496C26.8572 20.496 27.0422 20.486 27.2262 20.468C27.4112 20.45 27.5942 20.423 27.7752 20.386C27.9572 20.35 28.1362 20.305 28.3142 20.251C28.4912 20.197 28.6652 20.135 28.8362 20.064C29.0072 19.993 29.1752 19.914 29.3382 19.827C29.5012 19.74 29.6602 19.645 29.8142 19.542C29.9682 19.439 30.1172 19.329 30.2602 19.212C30.4032 19.094 30.5402 18.97 30.6712 18.839C30.8022 18.709 30.9262 18.572 31.0442 18.429C31.1612 18.286 31.2722 18.138 31.3752 17.984C31.4782 17.83 31.5732 17.672 31.6602 17.508C31.7482 17.345 31.8272 17.178 31.8982 17.007C31.9692 16.837 32.0312 16.663 32.0852 16.486C32.1392 16.309 32.1842 16.13 32.2202 15.948C32.2572 15.767 32.2842 15.584 32.3022 15.4C32.3212 15.216 32.3302 15.031 32.3302 14.846ZM26.6722 17.671C26.4862 17.671 26.3022 17.653 26.1202 17.617C25.9382 17.581 25.7612 17.527 25.5892 17.456C25.4182 17.385 25.2552 17.298 25.1002 17.195C24.9462 17.092 24.8032 16.975 24.6712 16.844C24.5402 16.713 24.4232 16.57 24.3202 16.416C24.2162 16.262 24.1292 16.099 24.0582 15.927C23.9872 15.756 23.9332 15.579 23.8972 15.398C23.8612 15.216 23.8432 15.032 23.8432 14.846C23.8432 14.661 23.8612 14.477 23.8972 14.295C23.9332 14.113 23.9872 13.937 24.0582 13.765C24.1292 13.594 24.2162 13.431 24.3202 13.277C24.4232 13.123 24.5402 12.98 24.6712 12.849C24.8032 12.718 24.9462 12.601 25.1002 12.498C25.2552 12.395 25.4182 12.308 25.5892 12.237C25.7612 12.166 25.9382 12.112 26.1202 12.076C26.3022 12.04 26.4862 12.022 26.6722 12.022C26.8582 12.022 27.0422 12.04 27.2242 12.076C27.4062 12.112 27.5832 12.166 27.7552 12.237C27.9262 12.308 28.0892 12.395 28.2442 12.498C28.3982 12.601 28.5412 12.718 28.6722 12.849C28.8042 12.98 28.9212 13.123 29.0242 13.277C29.1272 13.431 29.2142 13.594 29.2862 13.765C29.3572 13.937 29.4102 14.113 29.4472 14.295C29.4832 14.477 29.5012 14.661 29.5012 14.846C29.5012 15.032 29.4822 15.215 29.4462 15.397C29.4102 15.579 29.3562 15.756 29.2852 15.927C29.2132 16.098 29.1262 16.261 29.0232 16.415C28.9202 16.569 28.8032 16.712 28.6712 16.843C28.5402 16.974 28.3972 17.091 28.2432 17.194C28.0882 17.297 27.9252 17.384 27.7542 17.455C27.5822 17.526 27.4062 17.58 27.2242 17.616C27.0412 17.653 26.8582 17.671 26.6722 17.671Z" fill="black"/>
<path d="M26.6721 43.726C26.6721 43.588 26.6651 43.449 26.6511 43.311C26.6381 43.173 26.6171 43.036 26.5901 42.9C26.5631 42.764 26.5301 42.629 26.4891 42.496C26.4491 42.364 26.4021 42.233 26.3491 42.105C26.2961 41.977 26.2361 41.851 26.1711 41.729C26.1051 41.607 26.0341 41.488 25.9571 41.372C25.8801 41.257 25.7971 41.146 25.7091 41.038C25.6201 40.931 25.5271 40.828 25.4291 40.73C25.3311 40.632 25.2281 40.539 25.1201 40.451C25.0131 40.363 24.9021 40.28 24.7861 40.203C24.6701 40.126 24.5511 40.055 24.4291 39.99C24.3061 39.924 24.1811 39.865 24.0521 39.812C23.9241 39.759 23.7931 39.712 23.6601 39.672C23.5271 39.631 23.3931 39.598 23.2561 39.571C23.1201 39.544 22.9831 39.523 22.8441 39.51C22.7061 39.496 22.5671 39.489 22.4281 39.489C22.2891 39.489 22.1511 39.496 22.0121 39.51C21.8741 39.523 21.7371 39.544 21.6001 39.571C21.4641 39.598 21.3301 39.631 21.1971 39.672C21.0641 39.712 20.9331 39.759 20.8041 39.812C20.6761 39.865 20.5511 39.924 20.4281 39.99C20.3051 40.055 20.1861 40.126 20.0711 40.203C19.9551 40.28 19.8441 40.363 19.7361 40.451C19.6291 40.539 19.5261 40.632 19.4281 40.73C19.3291 40.828 19.2361 40.931 19.1481 41.038C19.0601 41.146 18.9771 41.257 18.9001 41.372C18.8231 41.488 18.7511 41.607 18.6861 41.729C18.6201 41.851 18.5611 41.977 18.5081 42.105C18.4551 42.233 18.4081 42.364 18.3681 42.496C18.3271 42.629 18.2931 42.764 18.2661 42.9C18.2391 43.036 18.2191 43.173 18.2051 43.311C18.1921 43.449 18.1851 43.588 18.1851 43.726C18.1851 43.865 18.1921 44.004 18.2051 44.142C18.2191 44.28 18.2391 44.417 18.2661 44.553C18.2931 44.689 18.3271 44.823 18.3681 44.956C18.4081 45.089 18.4551 45.22 18.5081 45.348C18.5611 45.476 18.6201 45.601 18.6861 45.724C18.7511 45.846 18.8231 45.965 18.9001 46.08C18.9771 46.196 19.0601 46.307 19.1481 46.414C19.2361 46.522 19.3291 46.624 19.4281 46.722C19.5261 46.82 19.6291 46.914 19.7361 47.002C19.8441 47.09 19.9551 47.172 20.0711 47.249C20.1861 47.326 20.3051 47.398 20.4281 47.463C20.5511 47.528 20.6761 47.588 20.8041 47.641C20.9331 47.694 21.0641 47.741 21.1971 47.781C21.3301 47.821 21.4641 47.855 21.6001 47.882C21.7371 47.909 21.8741 47.929 22.0121 47.943C22.1511 47.957 22.2891 47.963 22.4281 47.963C22.5671 47.963 22.7061 47.956 22.8441 47.942C22.9821 47.929 23.1201 47.908 23.2561 47.881C23.3921 47.854 23.5271 47.82 23.6601 47.78C23.7931 47.739 23.9231 47.693 24.0521 47.64C24.1801 47.586 24.3051 47.527 24.4281 47.462C24.5501 47.396 24.6691 47.325 24.7851 47.248C24.9001 47.171 25.0121 47.088 25.1191 47C25.2271 46.912 25.3291 46.819 25.4281 46.721C25.5261 46.623 25.6191 46.52 25.7071 46.413C25.7951 46.306 25.8781 46.194 25.9551 46.079C26.0331 45.964 26.1041 45.845 26.1691 45.723C26.2351 45.6 26.2941 45.475 26.3481 45.347C26.4011 45.219 26.4481 45.088 26.4881 44.956C26.5291 44.823 26.5621 44.689 26.5901 44.553C26.6171 44.417 26.6371 44.279 26.6511 44.141C26.6651 44.003 26.6721 43.865 26.6721 43.726ZM22.4281 45.139C22.3351 45.139 22.2431 45.13 22.1521 45.111C22.0611 45.093 21.9731 45.067 21.8871 45.031C21.8011 44.996 21.7201 44.952 21.6431 44.901C21.5651 44.849 21.4941 44.791 21.4281 44.725C21.3621 44.659 21.3041 44.588 21.2521 44.511C21.2011 44.434 21.1571 44.352 21.1221 44.267C21.0861 44.181 21.0591 44.093 21.0411 44.002C21.0231 43.911 21.0141 43.819 21.0141 43.726C21.0141 43.634 21.0231 43.542 21.0411 43.451C21.0591 43.36 21.0861 43.271 21.1221 43.186C21.1571 43.1 21.2011 43.019 21.2521 42.942C21.3041 42.865 21.3621 42.793 21.4281 42.728C21.4941 42.662 21.5651 42.604 21.6431 42.552C21.7201 42.5 21.8011 42.457 21.8871 42.421C21.9731 42.386 22.0611 42.359 22.1521 42.341C22.2431 42.323 22.3351 42.314 22.4281 42.314C22.5211 42.314 22.6131 42.323 22.7041 42.341C22.7951 42.359 22.8841 42.386 22.9701 42.421C23.0551 42.457 23.1371 42.5 23.2141 42.552C23.2911 42.604 23.3631 42.662 23.4291 42.728C23.4941 42.793 23.5531 42.865 23.6041 42.942C23.6561 43.019 23.7001 43.1 23.7351 43.186C23.7711 43.271 23.7981 43.36 23.8161 43.451C23.8341 43.542 23.8431 43.634 23.8431 43.726C23.8431 43.819 23.8341 43.911 23.8161 44.002C23.7971 44.093 23.7711 44.181 23.7351 44.267C23.6991 44.352 23.6561 44.434 23.6041 44.511C23.5531 44.588 23.4941 44.659 23.4281 44.725C23.3631 44.79 23.2911 44.849 23.2141 44.9C23.1371 44.952 23.0551 44.995 22.9701 45.031C22.8841 45.066 22.7951 45.093 22.7041 45.111C22.6131 45.129 22.5211 45.139 22.4281 45.139Z" fill="black"/>
<path d="M70.1292 11.5569C69.9902 11.5569 69.8522 11.5639 69.7142 11.5769C69.5752 11.5909 69.4382 11.6109 69.3022 11.6379C69.1652 11.6649 69.0312 11.6989 68.8982 11.7389C68.7652 11.7799 68.6342 11.8259 68.5062 11.8789C68.3772 11.9329 68.2522 11.9919 68.1292 12.0569C68.0072 12.1229 67.8872 12.1939 67.7722 12.2709C67.6562 12.3479 67.5452 12.4309 67.4372 12.5189C67.3302 12.6069 67.2272 12.6999 67.1292 12.7979C67.0312 12.8959 66.9372 12.9989 66.8492 13.1059C66.7612 13.2129 66.6782 13.3249 66.6012 13.4399C66.5242 13.5549 66.4532 13.6739 66.3872 13.7969C66.3212 13.9189 66.2622 14.0439 66.2092 14.1729C66.1562 14.3009 66.1092 14.4309 66.0692 14.5639C66.0282 14.6969 65.9952 14.8309 65.9672 14.9669C65.9402 15.1029 65.9202 15.2409 65.9062 15.3789C65.8932 15.5169 65.8862 15.6549 65.8862 15.7939C65.8862 15.9329 65.8932 16.0709 65.9062 16.2089C65.9202 16.3469 65.9402 16.4839 65.9672 16.6209C65.9952 16.7569 66.0282 16.8909 66.0692 17.0239C66.1092 17.1569 66.1562 17.2869 66.2092 17.4149C66.2622 17.5439 66.3212 17.6689 66.3872 17.7909C66.4532 17.9139 66.5242 18.0329 66.6012 18.1479C66.6782 18.2629 66.7612 18.3749 66.8492 18.4819C66.9372 18.5889 67.0312 18.6919 67.1292 18.7899C67.2272 18.8879 67.3302 18.9809 67.4372 19.0689C67.5452 19.1569 67.6562 19.2399 67.7722 19.3169C67.8872 19.3939 68.0072 19.4649 68.1292 19.5309C68.2522 19.5959 68.3772 19.6549 68.5062 19.7079C68.6342 19.7619 68.7652 19.8079 68.8982 19.8489C69.0312 19.8889 69.1652 19.9229 69.3022 19.9499C69.4382 19.9769 69.5752 19.9969 69.7142 20.0109C69.8522 20.0239 69.9902 20.0309 70.1292 20.0309C70.2682 20.0309 70.4072 20.0239 70.5452 20.0109C70.6842 19.9969 70.8212 19.9769 70.9572 19.9499C71.0942 19.9229 71.2282 19.8889 71.3612 19.8489C71.4942 19.8079 71.6252 19.7619 71.7532 19.7079C71.8822 19.6549 72.0072 19.5959 72.1302 19.5309C72.2522 19.4649 72.3712 19.3939 72.4872 19.3169C72.6032 19.2399 72.7142 19.1569 72.8222 19.0689C72.9292 18.9809 73.0322 18.8879 73.1302 18.7899C73.2282 18.6919 73.3222 18.5889 73.4102 18.4819C73.4982 18.3749 73.5812 18.2629 73.6582 18.1479C73.7352 18.0329 73.8062 17.9139 73.8722 17.7909C73.9372 17.6689 73.9972 17.5439 74.0502 17.4149C74.1032 17.2869 74.1502 17.1569 74.1902 17.0239C74.2312 16.8909 74.2642 16.7569 74.2912 16.6209C74.3192 16.4839 74.3392 16.3469 74.3532 16.2089C74.3662 16.0709 74.3732 15.9329 74.3732 15.7939C74.3732 15.6549 74.3662 15.5169 74.3522 15.3789C74.3382 15.2409 74.3182 15.1039 74.2912 14.9679C74.2632 14.8319 74.2302 14.6969 74.1892 14.5649C74.1492 14.4319 74.1022 14.3009 74.0492 14.1729C73.9962 14.0449 73.9362 13.9199 73.8712 13.7979C73.8052 13.6749 73.7342 13.5559 73.6562 13.4409C73.5792 13.3259 73.4972 13.2149 73.4082 13.1069C73.3202 12.9999 73.2272 12.8969 73.1292 12.7989C73.0302 12.7009 72.9282 12.6079 72.8202 12.5199C72.7132 12.4319 72.6012 12.3499 72.4862 12.2719C72.3702 12.1949 72.2512 12.1239 72.1292 12.0589C72.0062 11.9929 71.8812 11.9339 71.7532 11.8809C71.6242 11.8279 71.4942 11.7809 71.3612 11.7399C71.2282 11.6999 71.0932 11.6659 70.9572 11.6389C70.8212 11.6119 70.6842 11.5919 70.5452 11.5779C70.4072 11.5639 70.2682 11.5569 70.1292 11.5569ZM70.1292 17.2059C70.0372 17.2059 69.9452 17.1969 69.8532 17.1789C69.7622 17.1609 69.6742 17.1339 69.5882 17.0989C69.5022 17.0629 69.4212 17.0199 69.3442 16.9679C69.2662 16.9169 69.1952 16.8579 69.1292 16.7929C69.0642 16.7269 69.0052 16.6559 68.9532 16.5789C68.9022 16.5019 68.8582 16.4199 68.8232 16.3339C68.7872 16.2489 68.7602 16.1599 68.7422 16.0699C68.7242 15.9789 68.7152 15.8869 68.7152 15.7939C68.7152 15.7009 68.7242 15.6089 68.7422 15.5179C68.7602 15.4279 68.7872 15.3389 68.8232 15.2539C68.8582 15.1679 68.9022 15.0859 68.9532 15.0089C69.0052 14.9319 69.0642 14.8609 69.1292 14.7949C69.1952 14.7299 69.2662 14.6709 69.3442 14.6199C69.4212 14.5679 69.5022 14.5249 69.5882 14.4889C69.6742 14.4539 69.7622 14.4269 69.8532 14.4089C69.9452 14.3909 70.0372 14.3819 70.1292 14.3819C70.2222 14.3819 70.3142 14.3909 70.4052 14.4089C70.4972 14.4269 70.5852 14.4539 70.6712 14.4889C70.7572 14.5249 70.8382 14.5679 70.9152 14.6199C70.9932 14.6709 71.0642 14.7299 71.1302 14.7949C71.1952 14.8609 71.2542 14.9319 71.3062 15.0089C71.3572 15.0859 71.4012 15.1679 71.4362 15.2539C71.4722 15.3389 71.4992 15.4279 71.5172 15.5179C71.5352 15.6089 71.5442 15.7009 71.5442 15.7939C71.5442 15.8869 71.5352 15.9789 71.5172 16.0689C71.4982 16.1599 71.4722 16.2489 71.4362 16.3339C71.4002 16.4199 71.3572 16.5009 71.3052 16.5779C71.2542 16.6559 71.1952 16.7269 71.1292 16.7919C71.0642 16.8579 70.9922 16.9159 70.9152 16.9679C70.8382 17.0199 70.7562 17.0629 70.6712 17.0989C70.5852 17.1339 70.4962 17.1609 70.4052 17.1789C70.3142 17.1969 70.2222 17.2059 70.1292 17.2059Z" fill="black"/>
</svg>
